<?xml version="1.0" encoding="utf-8" standalone="no"?>
<!DOCTYPE svg PUBLIC "-//W3C//DTD SVG 1.1//EN"
  "http://www.w3.org/Graphics/SVG/1.1/DTD/svg11.dtd">
<!-- Created with matplotlib (https://matplotlib.org/) -->
<svg height="345.6pt" version="1.1" viewBox="0 0 460.8 345.6" width="460.8pt" xmlns="http://www.w3.org/2000/svg" xmlns:xlink="http://www.w3.org/1999/xlink">
 <defs>
  <style type="text/css">
*{stroke-linecap:butt;stroke-linejoin:round;white-space:pre;}
  </style>
 </defs>
 <g id="figure_1">
  <g id="patch_1">
   <path d="M 0 345.6 
L 460.8 345.6 
L 460.8 0 
L 0 0 
z
" style="fill:#ffffff;"/>
  </g>
  <g id="axes_1">
   <g id="patch_2">
    <path d="M 57.6 307.584 
L 414.72 307.584 
L 414.72 41.472 
L 57.6 41.472 
z
" style="fill:#ffffff;"/>
   </g>
   <g id="matplotlib.axis_1">
    <g id="xtick_1">
     <g id="line2d_1">
      <path clip-path="url(#pfc5e9dfd5f)" d="M 73.832727 307.584 
L 73.832727 41.472 
" style="fill:none;stroke:#b0b0b0;stroke-linecap:square;stroke-width:0.8;"/>
     </g>
     <g id="line2d_2">
      <defs>
       <path d="M 0 0 
L 0 3.5 
" id="mf893e40a3d" style="stroke:#000000;stroke-width:0.8;"/>
      </defs>
      <g>
       <use style="stroke:#000000;stroke-width:0.8;" x="73.832727" xlink:href="#mf893e40a3d" y="307.584"/>
      </g>
     </g>
     <g id="text_1">
      <!-- 0 -->
      <defs>
       <path d="M 31.78125 66.40625 
Q 24.171875 66.40625 20.328125 58.90625 
Q 16.5 51.421875 16.5 36.375 
Q 16.5 21.390625 20.328125 13.890625 
Q 24.171875 6.390625 31.78125 6.390625 
Q 39.453125 6.390625 43.28125 13.890625 
Q 47.125 21.390625 47.125 36.375 
Q 47.125 51.421875 43.28125 58.90625 
Q 39.453125 66.40625 31.78125 66.40625 
z
M 31.78125 74.21875 
Q 44.046875 74.21875 50.515625 64.515625 
Q 56.984375 54.828125 56.984375 36.375 
Q 56.984375 17.96875 50.515625 8.265625 
Q 44.046875 -1.421875 31.78125 -1.421875 
Q 19.53125 -1.421875 13.0625 8.265625 
Q 6.59375 17.96875 6.59375 36.375 
Q 6.59375 54.828125 13.0625 64.515625 
Q 19.53125 74.21875 31.78125 74.21875 
z
" id="DejaVuSans-48"/>
      </defs>
      <g transform="translate(70.651477 322.182437)scale(0.1 -0.1)">
       <use xlink:href="#DejaVuSans-48"/>
      </g>
     </g>
    </g>
    <g id="xtick_2">
     <g id="line2d_3">
      <path clip-path="url(#pfc5e9dfd5f)" d="M 128.122785 307.584 
L 128.122785 41.472 
" style="fill:none;stroke:#b0b0b0;stroke-linecap:square;stroke-width:0.8;"/>
     </g>
     <g id="line2d_4">
      <g>
       <use style="stroke:#000000;stroke-width:0.8;" x="128.122785" xlink:href="#mf893e40a3d" y="307.584"/>
      </g>
     </g>
     <g id="text_2">
      <!-- 50 -->
      <defs>
       <path d="M 10.796875 72.90625 
L 49.515625 72.90625 
L 49.515625 64.59375 
L 19.828125 64.59375 
L 19.828125 46.734375 
Q 21.96875 47.46875 24.109375 47.828125 
Q 26.265625 48.1875 28.421875 48.1875 
Q 40.625 48.1875 47.75 41.5 
Q 54.890625 34.8125 54.890625 23.390625 
Q 54.890625 11.625 47.5625 5.09375 
Q 40.234375 -1.421875 26.90625 -1.421875 
Q 22.3125 -1.421875 17.546875 -0.640625 
Q 12.796875 0.140625 7.71875 1.703125 
L 7.71875 11.625 
Q 12.109375 9.234375 16.796875 8.0625 
Q 21.484375 6.890625 26.703125 6.890625 
Q 35.15625 6.890625 40.078125 11.328125 
Q 45.015625 15.765625 45.015625 23.390625 
Q 45.015625 31 40.078125 35.4375 
Q 35.15625 39.890625 26.703125 39.890625 
Q 22.75 39.890625 18.8125 39.015625 
Q 14.890625 38.140625 10.796875 36.28125 
z
" id="DejaVuSans-53"/>
      </defs>
      <g transform="translate(121.760285 322.182437)scale(0.1 -0.1)">
       <use xlink:href="#DejaVuSans-53"/>
       <use x="63.623047" xlink:href="#DejaVuSans-48"/>
      </g>
     </g>
    </g>
    <g id="xtick_3">
     <g id="line2d_5">
      <path clip-path="url(#pfc5e9dfd5f)" d="M 182.412843 307.584 
L 182.412843 41.472 
" style="fill:none;stroke:#b0b0b0;stroke-linecap:square;stroke-width:0.8;"/>
     </g>
     <g id="line2d_6">
      <g>
       <use style="stroke:#000000;stroke-width:0.8;" x="182.412843" xlink:href="#mf893e40a3d" y="307.584"/>
      </g>
     </g>
     <g id="text_3">
      <!-- 100 -->
      <defs>
       <path d="M 12.40625 8.296875 
L 28.515625 8.296875 
L 28.515625 63.921875 
L 10.984375 60.40625 
L 10.984375 69.390625 
L 28.421875 72.90625 
L 38.28125 72.90625 
L 38.28125 8.296875 
L 54.390625 8.296875 
L 54.390625 0 
L 12.40625 0 
z
" id="DejaVuSans-49"/>
      </defs>
      <g transform="translate(172.869093 322.182437)scale(0.1 -0.1)">
       <use xlink:href="#DejaVuSans-49"/>
       <use x="63.623047" xlink:href="#DejaVuSans-48"/>
       <use x="127.246094" xlink:href="#DejaVuSans-48"/>
      </g>
     </g>
    </g>
    <g id="xtick_4">
     <g id="line2d_7">
      <path clip-path="url(#pfc5e9dfd5f)" d="M 236.702901 307.584 
L 236.702901 41.472 
" style="fill:none;stroke:#b0b0b0;stroke-linecap:square;stroke-width:0.8;"/>
     </g>
     <g id="line2d_8">
      <g>
       <use style="stroke:#000000;stroke-width:0.8;" x="236.702901" xlink:href="#mf893e40a3d" y="307.584"/>
      </g>
     </g>
     <g id="text_4">
      <!-- 150 -->
      <g transform="translate(227.159151 322.182437)scale(0.1 -0.1)">
       <use xlink:href="#DejaVuSans-49"/>
       <use x="63.623047" xlink:href="#DejaVuSans-53"/>
       <use x="127.246094" xlink:href="#DejaVuSans-48"/>
      </g>
     </g>
    </g>
    <g id="xtick_5">
     <g id="line2d_9">
      <path clip-path="url(#pfc5e9dfd5f)" d="M 290.992958 307.584 
L 290.992958 41.472 
" style="fill:none;stroke:#b0b0b0;stroke-linecap:square;stroke-width:0.8;"/>
     </g>
     <g id="line2d_10">
      <g>
       <use style="stroke:#000000;stroke-width:0.8;" x="290.992958" xlink:href="#mf893e40a3d" y="307.584"/>
      </g>
     </g>
     <g id="text_5">
      <!-- 200 -->
      <defs>
       <path d="M 19.1875 8.296875 
L 53.609375 8.296875 
L 53.609375 0 
L 7.328125 0 
L 7.328125 8.296875 
Q 12.9375 14.109375 22.625 23.890625 
Q 32.328125 33.6875 34.8125 36.53125 
Q 39.546875 41.84375 41.421875 45.53125 
Q 43.3125 49.21875 43.3125 52.78125 
Q 43.3125 58.59375 39.234375 62.25 
Q 35.15625 65.921875 28.609375 65.921875 
Q 23.96875 65.921875 18.8125 64.3125 
Q 13.671875 62.703125 7.8125 59.421875 
L 7.8125 69.390625 
Q 13.765625 71.78125 18.9375 73 
Q 24.125 74.21875 28.421875 74.21875 
Q 39.75 74.21875 46.484375 68.546875 
Q 53.21875 62.890625 53.21875 53.421875 
Q 53.21875 48.921875 51.53125 44.890625 
Q 49.859375 40.875 45.40625 35.40625 
Q 44.1875 33.984375 37.640625 27.21875 
Q 31.109375 20.453125 19.1875 8.296875 
z
" id="DejaVuSans-50"/>
      </defs>
      <g transform="translate(281.449208 322.182437)scale(0.1 -0.1)">
       <use xlink:href="#DejaVuSans-50"/>
       <use x="63.623047" xlink:href="#DejaVuSans-48"/>
       <use x="127.246094" xlink:href="#DejaVuSans-48"/>
      </g>
     </g>
    </g>
    <g id="xtick_6">
     <g id="line2d_11">
      <path clip-path="url(#pfc5e9dfd5f)" d="M 345.283016 307.584 
L 345.283016 41.472 
" style="fill:none;stroke:#b0b0b0;stroke-linecap:square;stroke-width:0.8;"/>
     </g>
     <g id="line2d_12">
      <g>
       <use style="stroke:#000000;stroke-width:0.8;" x="345.283016" xlink:href="#mf893e40a3d" y="307.584"/>
      </g>
     </g>
     <g id="text_6">
      <!-- 250 -->
      <g transform="translate(335.739266 322.182437)scale(0.1 -0.1)">
       <use xlink:href="#DejaVuSans-50"/>
       <use x="63.623047" xlink:href="#DejaVuSans-53"/>
       <use x="127.246094" xlink:href="#DejaVuSans-48"/>
      </g>
     </g>
    </g>
    <g id="xtick_7">
     <g id="line2d_13">
      <path clip-path="url(#pfc5e9dfd5f)" d="M 399.573074 307.584 
L 399.573074 41.472 
" style="fill:none;stroke:#b0b0b0;stroke-linecap:square;stroke-width:0.8;"/>
     </g>
     <g id="line2d_14">
      <g>
       <use style="stroke:#000000;stroke-width:0.8;" x="399.573074" xlink:href="#mf893e40a3d" y="307.584"/>
      </g>
     </g>
     <g id="text_7">
      <!-- 300 -->
      <defs>
       <path d="M 40.578125 39.3125 
Q 47.65625 37.796875 51.625 33 
Q 55.609375 28.21875 55.609375 21.1875 
Q 55.609375 10.40625 48.1875 4.484375 
Q 40.765625 -1.421875 27.09375 -1.421875 
Q 22.515625 -1.421875 17.65625 -0.515625 
Q 12.796875 0.390625 7.625 2.203125 
L 7.625 11.71875 
Q 11.71875 9.328125 16.59375 8.109375 
Q 21.484375 6.890625 26.8125 6.890625 
Q 36.078125 6.890625 40.9375 10.546875 
Q 45.796875 14.203125 45.796875 21.1875 
Q 45.796875 27.640625 41.28125 31.265625 
Q 36.765625 34.90625 28.71875 34.90625 
L 20.21875 34.90625 
L 20.21875 43.015625 
L 29.109375 43.015625 
Q 36.375 43.015625 40.234375 45.921875 
Q 44.09375 48.828125 44.09375 54.296875 
Q 44.09375 59.90625 40.109375 62.90625 
Q 36.140625 65.921875 28.71875 65.921875 
Q 24.65625 65.921875 20.015625 65.03125 
Q 15.375 64.15625 9.8125 62.3125 
L 9.8125 71.09375 
Q 15.4375 72.65625 20.34375 73.4375 
Q 25.25 74.21875 29.59375 74.21875 
Q 40.828125 74.21875 47.359375 69.109375 
Q 53.90625 64.015625 53.90625 55.328125 
Q 53.90625 49.265625 50.4375 45.09375 
Q 46.96875 40.921875 40.578125 39.3125 
z
" id="DejaVuSans-51"/>
      </defs>
      <g transform="translate(390.029324 322.182437)scale(0.1 -0.1)">
       <use xlink:href="#DejaVuSans-51"/>
       <use x="63.623047" xlink:href="#DejaVuSans-48"/>
       <use x="127.246094" xlink:href="#DejaVuSans-48"/>
      </g>
     </g>
    </g>
    <g id="text_8">
     <!-- Generations -->
     <defs>
      <path d="M 59.515625 10.40625 
L 59.515625 29.984375 
L 43.40625 29.984375 
L 43.40625 38.09375 
L 69.28125 38.09375 
L 69.28125 6.78125 
Q 63.578125 2.734375 56.6875 0.65625 
Q 49.8125 -1.421875 42 -1.421875 
Q 24.90625 -1.421875 15.25 8.5625 
Q 5.609375 18.5625 5.609375 36.375 
Q 5.609375 54.25 15.25 64.234375 
Q 24.90625 74.21875 42 74.21875 
Q 49.125 74.21875 55.546875 72.453125 
Q 61.96875 70.703125 67.390625 67.28125 
L 67.390625 56.78125 
Q 61.921875 61.421875 55.765625 63.765625 
Q 49.609375 66.109375 42.828125 66.109375 
Q 29.4375 66.109375 22.71875 58.640625 
Q 16.015625 51.171875 16.015625 36.375 
Q 16.015625 21.625 22.71875 14.15625 
Q 29.4375 6.6875 42.828125 6.6875 
Q 48.046875 6.6875 52.140625 7.59375 
Q 56.25 8.5 59.515625 10.40625 
z
" id="DejaVuSans-71"/>
      <path d="M 56.203125 29.59375 
L 56.203125 25.203125 
L 14.890625 25.203125 
Q 15.484375 15.921875 20.484375 11.0625 
Q 25.484375 6.203125 34.421875 6.203125 
Q 39.59375 6.203125 44.453125 7.46875 
Q 49.3125 8.734375 54.109375 11.28125 
L 54.109375 2.78125 
Q 49.265625 0.734375 44.1875 -0.34375 
Q 39.109375 -1.421875 33.890625 -1.421875 
Q 20.796875 -1.421875 13.15625 6.1875 
Q 5.515625 13.8125 5.515625 26.8125 
Q 5.515625 40.234375 12.765625 48.109375 
Q 20.015625 56 32.328125 56 
Q 43.359375 56 49.78125 48.890625 
Q 56.203125 41.796875 56.203125 29.59375 
z
M 47.21875 32.234375 
Q 47.125 39.59375 43.09375 43.984375 
Q 39.0625 48.390625 32.421875 48.390625 
Q 24.90625 48.390625 20.390625 44.140625 
Q 15.875 39.890625 15.1875 32.171875 
z
" id="DejaVuSans-101"/>
      <path d="M 54.890625 33.015625 
L 54.890625 0 
L 45.90625 0 
L 45.90625 32.71875 
Q 45.90625 40.484375 42.875 44.328125 
Q 39.84375 48.1875 33.796875 48.1875 
Q 26.515625 48.1875 22.3125 43.546875 
Q 18.109375 38.921875 18.109375 30.90625 
L 18.109375 0 
L 9.078125 0 
L 9.078125 54.6875 
L 18.109375 54.6875 
L 18.109375 46.1875 
Q 21.34375 51.125 25.703125 53.5625 
Q 30.078125 56 35.796875 56 
Q 45.21875 56 50.046875 50.171875 
Q 54.890625 44.34375 54.890625 33.015625 
z
" id="DejaVuSans-110"/>
      <path d="M 41.109375 46.296875 
Q 39.59375 47.171875 37.8125 47.578125 
Q 36.03125 48 33.890625 48 
Q 26.265625 48 22.1875 43.046875 
Q 18.109375 38.09375 18.109375 28.8125 
L 18.109375 0 
L 9.078125 0 
L 9.078125 54.6875 
L 18.109375 54.6875 
L 18.109375 46.1875 
Q 20.953125 51.171875 25.484375 53.578125 
Q 30.03125 56 36.53125 56 
Q 37.453125 56 38.578125 55.875 
Q 39.703125 55.765625 41.0625 55.515625 
z
" id="DejaVuSans-114"/>
      <path d="M 34.28125 27.484375 
Q 23.390625 27.484375 19.1875 25 
Q 14.984375 22.515625 14.984375 16.5 
Q 14.984375 11.71875 18.140625 8.90625 
Q 21.296875 6.109375 26.703125 6.109375 
Q 34.1875 6.109375 38.703125 11.40625 
Q 43.21875 16.703125 43.21875 25.484375 
L 43.21875 27.484375 
z
M 52.203125 31.203125 
L 52.203125 0 
L 43.21875 0 
L 43.21875 8.296875 
Q 40.140625 3.328125 35.546875 0.953125 
Q 30.953125 -1.421875 24.3125 -1.421875 
Q 15.921875 -1.421875 10.953125 3.296875 
Q 6 8.015625 6 15.921875 
Q 6 25.140625 12.171875 29.828125 
Q 18.359375 34.515625 30.609375 34.515625 
L 43.21875 34.515625 
L 43.21875 35.40625 
Q 43.21875 41.609375 39.140625 45 
Q 35.0625 48.390625 27.6875 48.390625 
Q 23 48.390625 18.546875 47.265625 
Q 14.109375 46.140625 10.015625 43.890625 
L 10.015625 52.203125 
Q 14.9375 54.109375 19.578125 55.046875 
Q 24.21875 56 28.609375 56 
Q 40.484375 56 46.34375 49.84375 
Q 52.203125 43.703125 52.203125 31.203125 
z
" id="DejaVuSans-97"/>
      <path d="M 18.3125 70.21875 
L 18.3125 54.6875 
L 36.8125 54.6875 
L 36.8125 47.703125 
L 18.3125 47.703125 
L 18.3125 18.015625 
Q 18.3125 11.328125 20.140625 9.421875 
Q 21.96875 7.515625 27.59375 7.515625 
L 36.8125 7.515625 
L 36.8125 0 
L 27.59375 0 
Q 17.1875 0 13.234375 3.875 
Q 9.28125 7.765625 9.28125 18.015625 
L 9.28125 47.703125 
L 2.6875 47.703125 
L 2.6875 54.6875 
L 9.28125 54.6875 
L 9.28125 70.21875 
z
" id="DejaVuSans-116"/>
      <path d="M 9.421875 54.6875 
L 18.40625 54.6875 
L 18.40625 0 
L 9.421875 0 
z
M 9.421875 75.984375 
L 18.40625 75.984375 
L 18.40625 64.59375 
L 9.421875 64.59375 
z
" id="DejaVuSans-105"/>
      <path d="M 30.609375 48.390625 
Q 23.390625 48.390625 19.1875 42.75 
Q 14.984375 37.109375 14.984375 27.296875 
Q 14.984375 17.484375 19.15625 11.84375 
Q 23.34375 6.203125 30.609375 6.203125 
Q 37.796875 6.203125 41.984375 11.859375 
Q 46.1875 17.53125 46.1875 27.296875 
Q 46.1875 37.015625 41.984375 42.703125 
Q 37.796875 48.390625 30.609375 48.390625 
z
M 30.609375 56 
Q 42.328125 56 49.015625 48.375 
Q 55.71875 40.765625 55.71875 27.296875 
Q 55.71875 13.875 49.015625 6.21875 
Q 42.328125 -1.421875 30.609375 -1.421875 
Q 18.84375 -1.421875 12.171875 6.21875 
Q 5.515625 13.875 5.515625 27.296875 
Q 5.515625 40.765625 12.171875 48.375 
Q 18.84375 56 30.609375 56 
z
" id="DejaVuSans-111"/>
      <path d="M 44.28125 53.078125 
L 44.28125 44.578125 
Q 40.484375 46.53125 36.375 47.5 
Q 32.28125 48.484375 27.875 48.484375 
Q 21.1875 48.484375 17.84375 46.4375 
Q 14.5 44.390625 14.5 40.28125 
Q 14.5 37.15625 16.890625 35.375 
Q 19.28125 33.59375 26.515625 31.984375 
L 29.59375 31.296875 
Q 39.15625 29.25 43.1875 25.515625 
Q 47.21875 21.78125 47.21875 15.09375 
Q 47.21875 7.46875 41.1875 3.015625 
Q 35.15625 -1.421875 24.609375 -1.421875 
Q 20.21875 -1.421875 15.453125 -0.5625 
Q 10.6875 0.296875 5.421875 2 
L 5.421875 11.28125 
Q 10.40625 8.6875 15.234375 7.390625 
Q 20.0625 6.109375 24.8125 6.109375 
Q 31.15625 6.109375 34.5625 8.28125 
Q 37.984375 10.453125 37.984375 14.40625 
Q 37.984375 18.0625 35.515625 20.015625 
Q 33.0625 21.96875 24.703125 23.78125 
L 21.578125 24.515625 
Q 13.234375 26.265625 9.515625 29.90625 
Q 5.8125 33.546875 5.8125 39.890625 
Q 5.8125 47.609375 11.28125 51.796875 
Q 16.75 56 26.8125 56 
Q 31.78125 56 36.171875 55.265625 
Q 40.578125 54.546875 44.28125 53.078125 
z
" id="DejaVuSans-115"/>
     </defs>
     <g transform="translate(205.662344 335.860562)scale(0.1 -0.1)">
      <use xlink:href="#DejaVuSans-71"/>
      <use x="77.490234" xlink:href="#DejaVuSans-101"/>
      <use x="139.013672" xlink:href="#DejaVuSans-110"/>
      <use x="202.392578" xlink:href="#DejaVuSans-101"/>
      <use x="263.916016" xlink:href="#DejaVuSans-114"/>
      <use x="305.029297" xlink:href="#DejaVuSans-97"/>
      <use x="366.308594" xlink:href="#DejaVuSans-116"/>
      <use x="405.517578" xlink:href="#DejaVuSans-105"/>
      <use x="433.300781" xlink:href="#DejaVuSans-111"/>
      <use x="494.482422" xlink:href="#DejaVuSans-110"/>
      <use x="557.861328" xlink:href="#DejaVuSans-115"/>
     </g>
    </g>
   </g>
   <g id="matplotlib.axis_2">
    <g id="ytick_1">
     <g id="line2d_15">
      <path clip-path="url(#pfc5e9dfd5f)" d="M 57.6 270.859509 
L 414.72 270.859509 
" style="fill:none;stroke:#b0b0b0;stroke-linecap:square;stroke-width:0.8;"/>
     </g>
     <g id="line2d_16">
      <defs>
       <path d="M 0 0 
L -3.5 0 
" id="m58572e76b4" style="stroke:#000000;stroke-width:0.8;"/>
      </defs>
      <g>
       <use style="stroke:#000000;stroke-width:0.8;" x="57.6" xlink:href="#m58572e76b4" y="270.859509"/>
      </g>
     </g>
     <g id="text_9">
      <!-- 60 -->
      <defs>
       <path d="M 33.015625 40.375 
Q 26.375 40.375 22.484375 35.828125 
Q 18.609375 31.296875 18.609375 23.390625 
Q 18.609375 15.53125 22.484375 10.953125 
Q 26.375 6.390625 33.015625 6.390625 
Q 39.65625 6.390625 43.53125 10.953125 
Q 47.40625 15.53125 47.40625 23.390625 
Q 47.40625 31.296875 43.53125 35.828125 
Q 39.65625 40.375 33.015625 40.375 
z
M 52.59375 71.296875 
L 52.59375 62.3125 
Q 48.875 64.0625 45.09375 64.984375 
Q 41.3125 65.921875 37.59375 65.921875 
Q 27.828125 65.921875 22.671875 59.328125 
Q 17.53125 52.734375 16.796875 39.40625 
Q 19.671875 43.65625 24.015625 45.921875 
Q 28.375 48.1875 33.59375 48.1875 
Q 44.578125 48.1875 50.953125 41.515625 
Q 57.328125 34.859375 57.328125 23.390625 
Q 57.328125 12.15625 50.6875 5.359375 
Q 44.046875 -1.421875 33.015625 -1.421875 
Q 20.359375 -1.421875 13.671875 8.265625 
Q 6.984375 17.96875 6.984375 36.375 
Q 6.984375 53.65625 15.1875 63.9375 
Q 23.390625 74.21875 37.203125 74.21875 
Q 40.921875 74.21875 44.703125 73.484375 
Q 48.484375 72.75 52.59375 71.296875 
z
" id="DejaVuSans-54"/>
      </defs>
      <g transform="translate(37.875 274.658728)scale(0.1 -0.1)">
       <use xlink:href="#DejaVuSans-54"/>
       <use x="63.623047" xlink:href="#DejaVuSans-48"/>
      </g>
     </g>
    </g>
    <g id="ytick_2">
     <g id="line2d_17">
      <path clip-path="url(#pfc5e9dfd5f)" d="M 57.6 232.400835 
L 414.72 232.400835 
" style="fill:none;stroke:#b0b0b0;stroke-linecap:square;stroke-width:0.8;"/>
     </g>
     <g id="line2d_18">
      <g>
       <use style="stroke:#000000;stroke-width:0.8;" x="57.6" xlink:href="#m58572e76b4" y="232.400835"/>
      </g>
     </g>
     <g id="text_10">
      <!-- 80 -->
      <defs>
       <path d="M 31.78125 34.625 
Q 24.75 34.625 20.71875 30.859375 
Q 16.703125 27.09375 16.703125 20.515625 
Q 16.703125 13.921875 20.71875 10.15625 
Q 24.75 6.390625 31.78125 6.390625 
Q 38.8125 6.390625 42.859375 10.171875 
Q 46.921875 13.96875 46.921875 20.515625 
Q 46.921875 27.09375 42.890625 30.859375 
Q 38.875 34.625 31.78125 34.625 
z
M 21.921875 38.8125 
Q 15.578125 40.375 12.03125 44.71875 
Q 8.5 49.078125 8.5 55.328125 
Q 8.5 64.0625 14.71875 69.140625 
Q 20.953125 74.21875 31.78125 74.21875 
Q 42.671875 74.21875 48.875 69.140625 
Q 55.078125 64.0625 55.078125 55.328125 
Q 55.078125 49.078125 51.53125 44.71875 
Q 48 40.375 41.703125 38.8125 
Q 48.828125 37.15625 52.796875 32.3125 
Q 56.78125 27.484375 56.78125 20.515625 
Q 56.78125 9.90625 50.3125 4.234375 
Q 43.84375 -1.421875 31.78125 -1.421875 
Q 19.734375 -1.421875 13.25 4.234375 
Q 6.78125 9.90625 6.78125 20.515625 
Q 6.78125 27.484375 10.78125 32.3125 
Q 14.796875 37.15625 21.921875 38.8125 
z
M 18.3125 54.390625 
Q 18.3125 48.734375 21.84375 45.5625 
Q 25.390625 42.390625 31.78125 42.390625 
Q 38.140625 42.390625 41.71875 45.5625 
Q 45.3125 48.734375 45.3125 54.390625 
Q 45.3125 60.0625 41.71875 63.234375 
Q 38.140625 66.40625 31.78125 66.40625 
Q 25.390625 66.40625 21.84375 63.234375 
Q 18.3125 60.0625 18.3125 54.390625 
z
" id="DejaVuSans-56"/>
      </defs>
      <g transform="translate(37.875 236.200054)scale(0.1 -0.1)">
       <use xlink:href="#DejaVuSans-56"/>
       <use x="63.623047" xlink:href="#DejaVuSans-48"/>
      </g>
     </g>
    </g>
    <g id="ytick_3">
     <g id="line2d_19">
      <path clip-path="url(#pfc5e9dfd5f)" d="M 57.6 193.942161 
L 414.72 193.942161 
" style="fill:none;stroke:#b0b0b0;stroke-linecap:square;stroke-width:0.8;"/>
     </g>
     <g id="line2d_20">
      <g>
       <use style="stroke:#000000;stroke-width:0.8;" x="57.6" xlink:href="#m58572e76b4" y="193.942161"/>
      </g>
     </g>
     <g id="text_11">
      <!-- 100 -->
      <g transform="translate(31.5125 197.741379)scale(0.1 -0.1)">
       <use xlink:href="#DejaVuSans-49"/>
       <use x="63.623047" xlink:href="#DejaVuSans-48"/>
       <use x="127.246094" xlink:href="#DejaVuSans-48"/>
      </g>
     </g>
    </g>
    <g id="ytick_4">
     <g id="line2d_21">
      <path clip-path="url(#pfc5e9dfd5f)" d="M 57.6 155.483487 
L 414.72 155.483487 
" style="fill:none;stroke:#b0b0b0;stroke-linecap:square;stroke-width:0.8;"/>
     </g>
     <g id="line2d_22">
      <g>
       <use style="stroke:#000000;stroke-width:0.8;" x="57.6" xlink:href="#m58572e76b4" y="155.483487"/>
      </g>
     </g>
     <g id="text_12">
      <!-- 120 -->
      <g transform="translate(31.5125 159.282705)scale(0.1 -0.1)">
       <use xlink:href="#DejaVuSans-49"/>
       <use x="63.623047" xlink:href="#DejaVuSans-50"/>
       <use x="127.246094" xlink:href="#DejaVuSans-48"/>
      </g>
     </g>
    </g>
    <g id="ytick_5">
     <g id="line2d_23">
      <path clip-path="url(#pfc5e9dfd5f)" d="M 57.6 117.024812 
L 414.72 117.024812 
" style="fill:none;stroke:#b0b0b0;stroke-linecap:square;stroke-width:0.8;"/>
     </g>
     <g id="line2d_24">
      <g>
       <use style="stroke:#000000;stroke-width:0.8;" x="57.6" xlink:href="#m58572e76b4" y="117.024812"/>
      </g>
     </g>
     <g id="text_13">
      <!-- 140 -->
      <defs>
       <path d="M 37.796875 64.3125 
L 12.890625 25.390625 
L 37.796875 25.390625 
z
M 35.203125 72.90625 
L 47.609375 72.90625 
L 47.609375 25.390625 
L 58.015625 25.390625 
L 58.015625 17.1875 
L 47.609375 17.1875 
L 47.609375 0 
L 37.796875 0 
L 37.796875 17.1875 
L 4.890625 17.1875 
L 4.890625 26.703125 
z
" id="DejaVuSans-52"/>
      </defs>
      <g transform="translate(31.5125 120.824031)scale(0.1 -0.1)">
       <use xlink:href="#DejaVuSans-49"/>
       <use x="63.623047" xlink:href="#DejaVuSans-52"/>
       <use x="127.246094" xlink:href="#DejaVuSans-48"/>
      </g>
     </g>
    </g>
    <g id="ytick_6">
     <g id="line2d_25">
      <path clip-path="url(#pfc5e9dfd5f)" d="M 57.6 78.566138 
L 414.72 78.566138 
" style="fill:none;stroke:#b0b0b0;stroke-linecap:square;stroke-width:0.8;"/>
     </g>
     <g id="line2d_26">
      <g>
       <use style="stroke:#000000;stroke-width:0.8;" x="57.6" xlink:href="#m58572e76b4" y="78.566138"/>
      </g>
     </g>
     <g id="text_14">
      <!-- 160 -->
      <g transform="translate(31.5125 82.365357)scale(0.1 -0.1)">
       <use xlink:href="#DejaVuSans-49"/>
       <use x="63.623047" xlink:href="#DejaVuSans-54"/>
       <use x="127.246094" xlink:href="#DejaVuSans-48"/>
      </g>
     </g>
    </g>
    <g id="text_15">
     <!-- Fitness -->
     <defs>
      <path d="M 9.8125 72.90625 
L 51.703125 72.90625 
L 51.703125 64.59375 
L 19.671875 64.59375 
L 19.671875 43.109375 
L 48.578125 43.109375 
L 48.578125 34.8125 
L 19.671875 34.8125 
L 19.671875 0 
L 9.8125 0 
z
" id="DejaVuSans-70"/>
     </defs>
     <g transform="translate(25.432812 192.202219)rotate(-90)scale(0.1 -0.1)">
      <use xlink:href="#DejaVuSans-70"/>
      <use x="57.410156" xlink:href="#DejaVuSans-105"/>
      <use x="85.193359" xlink:href="#DejaVuSans-116"/>
      <use x="124.402344" xlink:href="#DejaVuSans-110"/>
      <use x="187.78125" xlink:href="#DejaVuSans-101"/>
      <use x="249.304688" xlink:href="#DejaVuSans-115"/>
      <use x="301.404297" xlink:href="#DejaVuSans-115"/>
     </g>
    </g>
   </g>
   <g id="line2d_27">
    <path clip-path="url(#pfc5e9dfd5f)" d="M 73.832727 185.404335 
L 74.918528 234.054558 
L 76.00433 243.899978 
L 77.090131 215.286725 
L 78.175932 234.054558 
L 79.261733 248.938065 
L 81.433335 229.247224 
L 82.519137 215.286725 
L 83.604938 219.863307 
L 84.690739 238.93881 
L 85.77654 210.78706 
L 86.862341 206.364312 
L 87.948142 210.78706 
L 89.033943 197.749569 
L 90.119745 215.286725 
L 91.205546 189.442496 
L 92.291347 177.558766 
L 93.377148 193.557574 
L 94.462949 224.516807 
L 95.54875 210.78706 
L 96.634552 202.018482 
L 97.720353 215.286725 
L 98.806154 197.749569 
L 99.891955 202.018482 
L 100.977756 202.018482 
L 102.063557 181.443092 
L 103.149358 177.558766 
L 104.23516 197.749569 
L 105.320961 210.78706 
L 106.406762 181.443092 
L 107.492563 170.020865 
L 108.578364 193.557574 
L 109.664165 177.558766 
L 110.749967 185.404335 
L 111.835768 202.018482 
L 112.921569 229.247224 
L 114.00737 197.749569 
L 115.093171 181.443092 
L 116.178972 202.018482 
L 117.264773 177.558766 
L 118.350575 189.442496 
L 119.436376 185.404335 
L 120.522177 173.751357 
L 121.607978 159.290895 
L 122.693779 152.522169 
L 123.77958 210.78706 
L 124.865382 243.899978 
L 125.951183 206.364312 
L 127.036984 224.516807 
L 128.122785 224.516807 
L 129.208586 243.899978 
L 130.294387 219.863307 
L 131.380189 224.516807 
L 132.46599 248.938065 
L 133.551791 238.93881 
L 136.809194 238.93881 
L 137.894995 243.899978 
L 138.980797 234.054558 
L 140.066598 215.286725 
L 141.152399 219.863307 
L 142.2382 219.863307 
L 143.324001 206.364312 
L 144.409802 238.93881 
L 145.495604 173.751357 
L 146.581405 202.018482 
L 148.753007 219.863307 
L 149.838808 224.516807 
L 150.924609 234.054558 
L 152.01041 189.442496 
L 153.096212 219.863307 
L 154.182013 177.558766 
L 155.267814 202.018482 
L 156.353615 215.286725 
L 157.439416 185.404335 
L 158.525217 219.863307 
L 159.611019 189.442496 
L 160.69682 185.404335 
L 162.868422 193.557574 
L 163.954223 202.018482 
L 165.040024 185.404335 
L 166.125825 215.286725 
L 167.211627 170.020865 
L 168.297428 229.247224 
L 169.383229 197.749569 
L 170.46903 170.020865 
L 171.554831 177.558766 
L 172.640632 224.516807 
L 173.726434 159.290895 
L 174.812235 206.364312 
L 175.898036 193.557574 
L 176.983837 215.286725 
L 178.069638 202.018482 
L 179.155439 238.93881 
L 180.24124 189.442496 
L 181.327042 170.020865 
L 182.412843 185.404335 
L 184.584445 177.558766 
L 185.670246 185.404335 
L 186.756047 215.286725 
L 187.841849 202.018482 
L 188.92765 243.899978 
L 190.013451 197.749569 
L 191.099252 202.018482 
L 192.185053 202.018482 
L 193.270854 206.364312 
L 194.356656 206.364312 
L 195.442457 193.557574 
L 196.528258 202.018482 
L 197.614059 155.868073 
L 198.69986 152.522169 
L 199.785661 173.751357 
L 200.871462 155.868073 
L 201.957264 229.247224 
L 203.043065 219.863307 
L 204.128866 185.404335 
L 205.214667 193.557574 
L 206.300468 197.749569 
L 208.472071 215.286725 
L 209.557872 259.244989 
L 210.643673 224.516807 
L 211.729474 229.247224 
L 212.815275 210.78706 
L 213.901076 219.863307 
L 216.072679 152.522169 
L 217.15848 202.018482 
L 218.244281 219.863307 
L 219.330082 219.863307 
L 220.415883 243.899978 
L 221.501684 254.053068 
L 222.587486 210.78706 
L 223.673287 202.018482 
L 224.759088 234.054558 
L 225.844889 202.018482 
L 226.93069 206.364312 
L 228.016491 189.442496 
L 229.102292 197.749569 
L 230.188094 215.286725 
L 231.273895 210.78706 
L 232.359696 189.442496 
L 233.445497 189.442496 
L 234.531298 215.286725 
L 235.617099 197.749569 
L 236.702901 197.749569 
L 238.874503 189.442496 
L 239.960304 177.558766 
L 241.046105 202.018482 
L 242.131906 219.863307 
L 243.217708 215.286725 
L 244.303509 219.863307 
L 245.38931 202.018482 
L 246.475111 197.749569 
L 247.560912 202.018482 
L 248.646713 202.018482 
L 249.732514 219.863307 
L 250.818316 202.018482 
L 251.904117 243.899978 
L 252.989918 206.364312 
L 254.075719 224.516807 
L 255.16152 238.93881 
L 256.247321 224.516807 
L 257.333123 185.404335 
L 258.418924 177.558766 
L 259.504725 219.863307 
L 260.590526 202.018482 
L 261.676327 229.247224 
L 262.762128 206.364312 
L 263.847929 229.247224 
L 264.933731 197.749569 
L 266.019532 215.286725 
L 267.105333 197.749569 
L 268.191134 219.863307 
L 269.276935 224.516807 
L 270.362736 206.364312 
L 271.448538 181.443092 
L 272.534339 197.749569 
L 273.62014 197.749569 
L 274.705941 210.78706 
L 275.791742 202.018482 
L 276.877543 215.286725 
L 277.963344 215.286725 
L 279.049146 219.863307 
L 280.134947 206.364312 
L 281.220748 219.863307 
L 282.306549 219.863307 
L 283.39235 181.443092 
L 284.478151 185.404335 
L 285.563953 210.78706 
L 286.649754 189.442496 
L 288.821356 215.286725 
L 290.992958 197.749569 
L 292.07876 206.364312 
L 293.164561 185.404335 
L 294.250362 189.442496 
L 295.336163 181.443092 
L 296.421964 197.749569 
L 297.507765 193.557574 
L 298.593566 181.443092 
L 299.679368 206.364312 
L 300.765169 189.442496 
L 301.85097 202.018482 
L 302.936771 193.557574 
L 304.022572 219.863307 
L 305.108373 234.054558 
L 306.194175 193.557574 
L 307.279976 229.247224 
L 308.365777 219.863307 
L 309.451578 189.442496 
L 310.537379 219.863307 
L 311.62318 224.516807 
L 312.708981 206.364312 
L 313.794783 224.516807 
L 314.880584 219.863307 
L 315.966385 234.054558 
L 317.052186 202.018482 
L 319.223788 219.863307 
L 320.30959 215.286725 
L 321.395391 215.286725 
L 322.481192 224.516807 
L 323.566993 193.557574 
L 324.652794 170.020865 
L 325.738595 197.749569 
L 326.824396 189.442496 
L 327.910198 206.364312 
L 328.995999 185.404335 
L 330.0818 215.286725 
L 331.167601 197.749569 
L 332.253402 193.557574 
L 333.339203 215.286725 
L 334.425005 219.863307 
L 335.510806 210.78706 
L 336.596607 238.93881 
L 337.682408 197.749569 
L 338.768209 219.863307 
L 340.939811 193.557574 
L 342.025613 197.749569 
L 343.111414 193.557574 
L 344.197215 197.749569 
L 345.283016 229.247224 
L 346.368817 234.054558 
L 347.454618 210.78706 
L 348.54042 193.557574 
L 349.626221 224.516807 
L 350.712022 215.286725 
L 351.797823 181.443092 
L 352.883624 224.516807 
L 353.969425 219.863307 
L 355.055227 197.749569 
L 357.226829 181.443092 
L 358.31263 197.749569 
L 359.398431 219.863307 
L 360.484232 210.78706 
L 361.570033 210.78706 
L 362.655835 193.557574 
L 363.741636 210.78706 
L 364.827437 202.018482 
L 365.913238 197.749569 
L 366.999039 197.749569 
L 368.08484 224.516807 
L 369.170642 206.364312 
L 370.256443 210.78706 
L 371.342244 206.364312 
L 372.428045 210.78706 
L 373.513846 219.863307 
L 374.599647 219.863307 
L 375.685448 193.557574 
L 376.77125 181.443092 
L 377.857051 166.367291 
L 380.028653 238.93881 
L 381.114454 243.899978 
L 382.200255 238.93881 
L 383.286057 206.364312 
L 384.371858 193.557574 
L 385.457659 189.442496 
L 386.54346 229.247224 
L 387.629261 215.286725 
L 388.715062 210.78706 
L 389.800863 215.286725 
L 390.886665 224.516807 
L 393.058267 206.364312 
L 395.229869 243.899978 
L 396.31567 202.018482 
L 397.401472 254.053068 
L 398.487273 219.863307 
L 398.487273 219.863307 
" style="fill:none;stroke:#0000ff;stroke-linecap:square;stroke-width:1.5;"/>
   </g>
   <g id="line2d_28">
    <path clip-path="url(#pfc5e9dfd5f)" d="M 73.832727 256.038755 
L 74.918528 284.238353 
L 76.00433 288.964766 
L 77.090131 274.327053 
L 78.175932 284.238353 
L 79.261733 291.235613 
L 81.433335 281.807387 
L 82.519137 274.327053 
L 83.604938 276.847383 
L 84.690739 286.627565 
L 85.77654 271.783245 
L 86.862341 269.217141 
L 87.948142 271.783245 
L 89.033943 264.018552 
L 90.119745 274.327053 
L 91.205546 258.725357 
L 92.291347 250.571766 
L 93.377148 261.384546 
L 94.462949 279.342004 
L 95.54875 271.783245 
L 96.634552 266.629055 
L 97.720353 274.327053 
L 98.806154 264.018552 
L 99.891955 266.629055 
L 100.977756 266.629055 
L 102.063557 253.321983 
L 103.149358 250.571766 
L 104.23516 264.018552 
L 105.320961 271.783245 
L 106.406762 253.321983 
L 107.492563 244.95526 
L 108.578364 261.384546 
L 109.664165 250.571766 
L 110.749967 256.038755 
L 111.835768 266.629055 
L 112.921569 281.807387 
L 114.00737 264.018552 
L 115.093171 253.321983 
L 116.178972 266.629055 
L 117.264773 250.571766 
L 118.350575 258.725357 
L 119.436376 256.038755 
L 120.522177 247.784305 
L 121.607978 236.166399 
L 122.693779 229.991543 
L 123.77958 271.783245 
L 124.865382 288.964766 
L 125.951183 269.217141 
L 127.036984 279.342004 
L 128.122785 279.342004 
L 129.208586 288.964766 
L 130.294387 276.847383 
L 131.380189 279.342004 
L 132.46599 291.235613 
L 133.551791 286.627565 
L 136.809194 286.627565 
L 137.894995 288.964766 
L 138.980797 284.238353 
L 140.066598 274.327053 
L 141.152399 276.847383 
L 142.2382 276.847383 
L 143.324001 269.217141 
L 144.409802 286.627565 
L 145.495604 247.784305 
L 146.581405 266.629055 
L 148.753007 276.847383 
L 149.838808 279.342004 
L 150.924609 284.238353 
L 152.01041 258.725357 
L 153.096212 276.847383 
L 154.182013 250.571766 
L 155.267814 266.629055 
L 156.353615 274.327053 
L 157.439416 256.038755 
L 158.525217 276.847383 
L 159.611019 258.725357 
L 160.69682 256.038755 
L 162.868422 261.384546 
L 163.954223 266.629055 
L 165.040024 256.038755 
L 166.125825 274.327053 
L 167.211627 244.95526 
L 168.297428 281.807387 
L 170.46903 244.95526 
L 171.554831 250.571766 
L 172.640632 279.342004 
L 173.726434 236.166399 
L 174.812235 269.217141 
L 175.898036 261.384546 
L 176.983837 274.327053 
L 178.069638 266.629055 
L 179.155439 286.627565 
L 180.24124 258.725357 
L 181.327042 244.95526 
L 182.412843 256.038755 
L 184.584445 250.571766 
L 185.670246 256.038755 
L 186.756047 274.327053 
L 187.841849 266.629055 
L 188.92765 288.964766 
L 190.013451 264.018552 
L 191.099252 266.629055 
L 192.185053 266.629055 
L 193.270854 269.217141 
L 194.356656 269.217141 
L 195.442457 261.384546 
L 196.528258 266.629055 
L 197.614059 233.115458 
L 198.69986 229.991543 
L 199.785661 247.784305 
L 200.871462 233.115458 
L 201.957264 281.807387 
L 203.043065 276.847383 
L 204.128866 256.038755 
L 205.214667 261.384546 
L 206.300468 264.018552 
L 208.472071 274.327053 
L 209.557872 295.488 
L 210.643673 279.342004 
L 211.729474 281.807387 
L 212.815275 271.783245 
L 213.901076 276.847383 
L 214.986877 256.038755 
L 216.072679 229.991543 
L 217.15848 266.629055 
L 218.244281 276.847383 
L 219.330082 276.847383 
L 220.415883 288.964766 
L 221.501684 293.419819 
L 222.587486 271.783245 
L 223.673287 266.629055 
L 224.759088 284.238353 
L 225.844889 266.629055 
L 226.93069 269.217141 
L 228.016491 258.725357 
L 229.102292 264.018552 
L 230.188094 274.327053 
L 231.273895 271.783245 
L 232.359696 258.725357 
L 233.445497 258.725357 
L 234.531298 274.327053 
L 235.617099 264.018552 
L 236.702901 264.018552 
L 238.874503 258.725357 
L 239.960304 250.571766 
L 241.046105 266.629055 
L 242.131906 276.847383 
L 243.217708 274.327053 
L 244.303509 276.847383 
L 245.38931 266.629055 
L 246.475111 264.018552 
L 247.560912 266.629055 
L 248.646713 266.629055 
L 249.732514 276.847383 
L 250.818316 266.629055 
L 251.904117 288.964766 
L 252.989918 269.217141 
L 254.075719 279.342004 
L 255.16152 286.627565 
L 256.247321 279.342004 
L 257.333123 256.038755 
L 258.418924 250.571766 
L 259.504725 276.847383 
L 260.590526 266.629055 
L 261.676327 281.807387 
L 262.762128 269.217141 
L 263.847929 281.807387 
L 264.933731 264.018552 
L 266.019532 274.327053 
L 267.105333 264.018552 
L 268.191134 276.847383 
L 269.276935 279.342004 
L 270.362736 269.217141 
L 271.448538 253.321983 
L 272.534339 264.018552 
L 273.62014 264.018552 
L 274.705941 271.783245 
L 275.791742 266.629055 
L 276.877543 274.327053 
L 277.963344 274.327053 
L 279.049146 276.847383 
L 280.134947 269.217141 
L 281.220748 276.847383 
L 282.306549 276.847383 
L 283.39235 253.321983 
L 284.478151 256.038755 
L 285.563953 271.783245 
L 286.649754 258.725357 
L 288.821356 274.327053 
L 290.992958 264.018552 
L 292.07876 269.217141 
L 293.164561 256.038755 
L 294.250362 258.725357 
L 295.336163 253.321983 
L 296.421964 264.018552 
L 297.507765 261.384546 
L 298.593566 253.321983 
L 299.679368 269.217141 
L 300.765169 258.725357 
L 301.85097 266.629055 
L 302.936771 261.384546 
L 304.022572 276.847383 
L 305.108373 284.238353 
L 306.194175 261.384546 
L 307.279976 281.807387 
L 308.365777 276.847383 
L 309.451578 258.725357 
L 310.537379 276.847383 
L 311.62318 279.342004 
L 312.708981 269.217141 
L 313.794783 279.342004 
L 314.880584 276.847383 
L 315.966385 284.238353 
L 317.052186 266.629055 
L 319.223788 276.847383 
L 320.30959 274.327053 
L 321.395391 274.327053 
L 322.481192 279.342004 
L 324.652794 244.95526 
L 325.738595 264.018552 
L 326.824396 258.725357 
L 327.910198 269.217141 
L 328.995999 256.038755 
L 330.0818 274.327053 
L 331.167601 264.018552 
L 332.253402 261.384546 
L 333.339203 274.327053 
L 334.425005 276.847383 
L 335.510806 271.783245 
L 336.596607 286.627565 
L 337.682408 264.018552 
L 338.768209 276.847383 
L 340.939811 261.384546 
L 342.025613 264.018552 
L 343.111414 261.384546 
L 344.197215 264.018552 
L 345.283016 281.807387 
L 346.368817 284.238353 
L 347.454618 271.783245 
L 348.54042 261.384546 
L 349.626221 279.342004 
L 350.712022 274.327053 
L 351.797823 253.321983 
L 352.883624 279.342004 
L 353.969425 276.847383 
L 355.055227 264.018552 
L 357.226829 253.321983 
L 358.31263 264.018552 
L 359.398431 276.847383 
L 360.484232 271.783245 
L 361.570033 271.783245 
L 362.655835 261.384546 
L 363.741636 271.783245 
L 364.827437 266.629055 
L 365.913238 264.018552 
L 366.999039 264.018552 
L 368.08484 279.342004 
L 369.170642 269.217141 
L 370.256443 271.783245 
L 371.342244 269.217141 
L 372.428045 271.783245 
L 373.513846 276.847383 
L 374.599647 276.847383 
L 375.685448 261.384546 
L 376.77125 253.321983 
L 377.857051 242.079724 
L 378.942852 266.629055 
L 380.028653 286.627565 
L 381.114454 288.964766 
L 382.200255 286.627565 
L 383.286057 269.217141 
L 384.371858 261.384546 
L 385.457659 258.725357 
L 386.54346 281.807387 
L 387.629261 274.327053 
L 388.715062 271.783245 
L 389.800863 274.327053 
L 390.886665 279.342004 
L 393.058267 269.217141 
L 395.229869 288.964766 
L 396.31567 266.629055 
L 397.401472 293.419819 
L 398.487273 276.847383 
L 398.487273 276.847383 
" style="fill:none;stroke:#008000;stroke-dasharray:9.6,2.4,1.5,2.4;stroke-dashoffset:0;stroke-width:1.5;"/>
   </g>
   <g id="line2d_29">
    <path clip-path="url(#pfc5e9dfd5f)" d="M 73.832727 114.769915 
L 74.918528 183.870763 
L 76.00433 198.835191 
L 77.090131 156.246397 
L 78.175932 183.870763 
L 79.261733 206.640516 
L 81.433335 176.687061 
L 82.519137 156.246397 
L 83.604938 162.879231 
L 84.690739 191.250054 
L 85.77654 149.790875 
L 86.862341 143.511484 
L 87.948142 149.790875 
L 89.033943 131.480587 
L 90.119745 156.246397 
L 91.205546 120.159635 
L 92.291347 104.545765 
L 93.377148 125.730602 
L 94.462949 169.691609 
L 95.54875 149.790875 
L 96.634552 137.40791 
L 97.720353 156.246397 
L 98.806154 131.480587 
L 99.891955 137.40791 
L 100.977756 137.40791 
L 102.063557 109.5642 
L 103.149358 104.545765 
L 104.23516 131.480587 
L 105.320961 149.790875 
L 106.406762 109.5642 
L 107.492563 95.08647 
L 108.578364 125.730602 
L 109.664165 104.545765 
L 110.749967 114.769915 
L 111.835768 137.40791 
L 112.921569 176.687061 
L 114.00737 131.480587 
L 115.093171 109.5642 
L 116.178972 137.40791 
L 117.264773 104.545765 
L 118.350575 120.159635 
L 119.436376 114.769915 
L 120.522177 99.718409 
L 121.607978 82.415392 
L 122.693779 75.052794 
L 123.77958 149.790875 
L 124.865382 198.835191 
L 125.951183 143.511484 
L 127.036984 169.691609 
L 128.122785 169.691609 
L 129.208586 198.835191 
L 130.294387 162.879231 
L 131.380189 169.691609 
L 132.46599 206.640516 
L 133.551791 191.250054 
L 136.809194 191.250054 
L 137.894995 198.835191 
L 138.980797 183.870763 
L 140.066598 156.246397 
L 141.152399 162.879231 
L 142.2382 162.879231 
L 143.324001 143.511484 
L 144.409802 191.250054 
L 145.495604 99.718409 
L 146.581405 137.40791 
L 148.753007 162.879231 
L 149.838808 169.691609 
L 150.924609 183.870763 
L 152.01041 120.159635 
L 153.096212 162.879231 
L 154.182013 104.545765 
L 155.267814 137.40791 
L 156.353615 156.246397 
L 157.439416 114.769915 
L 158.525217 162.879231 
L 159.611019 120.159635 
L 160.69682 114.769915 
L 162.868422 125.730602 
L 163.954223 137.40791 
L 165.040024 114.769915 
L 166.125825 156.246397 
L 167.211627 95.08647 
L 168.297428 176.687061 
L 169.383229 131.480587 
L 170.46903 95.08647 
L 171.554831 104.545765 
L 172.640632 169.691609 
L 173.726434 82.415392 
L 174.812235 143.511484 
L 175.898036 125.730602 
L 176.983837 156.246397 
L 178.069638 137.40791 
L 179.155439 191.250054 
L 180.24124 120.159635 
L 181.327042 95.08647 
L 182.412843 114.769915 
L 184.584445 104.545765 
L 185.670246 114.769915 
L 186.756047 156.246397 
L 187.841849 137.40791 
L 188.92765 198.835191 
L 190.013451 131.480587 
L 191.099252 137.40791 
L 192.185053 137.40791 
L 193.270854 143.511484 
L 194.356656 143.511484 
L 195.442457 125.730602 
L 196.528258 137.40791 
L 197.614059 78.620688 
L 198.69986 75.052794 
L 199.785661 99.718409 
L 200.871462 78.620688 
L 201.957264 176.687061 
L 203.043065 162.879231 
L 204.128866 114.769915 
L 205.214667 125.730602 
L 206.300468 131.480587 
L 208.472071 156.246397 
L 209.557872 223.001979 
L 210.643673 169.691609 
L 211.729474 176.687061 
L 212.815275 149.790875 
L 213.901076 162.879231 
L 214.986877 114.769915 
L 216.072679 75.052794 
L 217.15848 137.40791 
L 218.244281 162.879231 
L 219.330082 162.879231 
L 220.415883 198.835191 
L 221.501684 214.686318 
L 222.587486 149.790875 
L 223.673287 137.40791 
L 224.759088 183.870763 
L 225.844889 137.40791 
L 226.93069 143.511484 
L 228.016491 120.159635 
L 229.102292 131.480587 
L 230.188094 156.246397 
L 231.273895 149.790875 
L 232.359696 120.159635 
L 233.445497 120.159635 
L 234.531298 156.246397 
L 235.617099 131.480587 
L 236.702901 131.480587 
L 238.874503 120.159635 
L 239.960304 104.545765 
L 241.046105 137.40791 
L 242.131906 162.879231 
L 243.217708 156.246397 
L 244.303509 162.879231 
L 245.38931 137.40791 
L 246.475111 131.480587 
L 247.560912 137.40791 
L 248.646713 137.40791 
L 249.732514 162.879231 
L 250.818316 137.40791 
L 251.904117 198.835191 
L 252.989918 143.511484 
L 254.075719 169.691609 
L 255.16152 191.250054 
L 256.247321 169.691609 
L 257.333123 114.769915 
L 258.418924 104.545765 
L 259.504725 162.879231 
L 260.590526 137.40791 
L 261.676327 176.687061 
L 262.762128 143.511484 
L 263.847929 176.687061 
L 264.933731 131.480587 
L 266.019532 156.246397 
L 267.105333 131.480587 
L 268.191134 162.879231 
L 269.276935 169.691609 
L 270.362736 143.511484 
L 271.448538 109.5642 
L 272.534339 131.480587 
L 273.62014 131.480587 
L 274.705941 149.790875 
L 275.791742 137.40791 
L 276.877543 156.246397 
L 277.963344 156.246397 
L 279.049146 162.879231 
L 280.134947 143.511484 
L 281.220748 162.879231 
L 282.306549 162.879231 
L 283.39235 109.5642 
L 284.478151 114.769915 
L 285.563953 149.790875 
L 286.649754 120.159635 
L 288.821356 156.246397 
L 290.992958 131.480587 
L 292.07876 143.511484 
L 293.164561 114.769915 
L 294.250362 120.159635 
L 295.336163 109.5642 
L 296.421964 131.480587 
L 297.507765 125.730602 
L 298.593566 109.5642 
L 299.679368 143.511484 
L 300.765169 120.159635 
L 301.85097 137.40791 
L 302.936771 125.730602 
L 304.022572 162.879231 
L 305.108373 183.870763 
L 306.194175 125.730602 
L 307.279976 176.687061 
L 308.365777 162.879231 
L 309.451578 120.159635 
L 310.537379 162.879231 
L 311.62318 169.691609 
L 312.708981 143.511484 
L 313.794783 169.691609 
L 314.880584 162.879231 
L 315.966385 183.870763 
L 317.052186 137.40791 
L 319.223788 162.879231 
L 320.30959 156.246397 
L 321.395391 156.246397 
L 322.481192 169.691609 
L 323.566993 125.730602 
L 324.652794 95.08647 
L 325.738595 131.480587 
L 326.824396 120.159635 
L 327.910198 143.511484 
L 328.995999 114.769915 
L 330.0818 156.246397 
L 331.167601 131.480587 
L 332.253402 125.730602 
L 333.339203 156.246397 
L 334.425005 162.879231 
L 335.510806 149.790875 
L 336.596607 191.250054 
L 337.682408 131.480587 
L 338.768209 162.879231 
L 340.939811 125.730602 
L 342.025613 131.480587 
L 343.111414 125.730602 
L 344.197215 131.480587 
L 345.283016 176.687061 
L 346.368817 183.870763 
L 347.454618 149.790875 
L 348.54042 125.730602 
L 349.626221 169.691609 
L 350.712022 156.246397 
L 351.797823 109.5642 
L 352.883624 169.691609 
L 353.969425 162.879231 
L 355.055227 131.480587 
L 357.226829 109.5642 
L 358.31263 131.480587 
L 359.398431 162.879231 
L 360.484232 149.790875 
L 361.570033 149.790875 
L 362.655835 125.730602 
L 363.741636 149.790875 
L 364.827437 137.40791 
L 365.913238 131.480587 
L 366.999039 131.480587 
L 368.08484 169.691609 
L 369.170642 143.511484 
L 370.256443 149.790875 
L 371.342244 143.511484 
L 372.428045 149.790875 
L 373.513846 162.879231 
L 374.599647 162.879231 
L 375.685448 125.730602 
L 376.77125 109.5642 
L 377.857051 90.654859 
L 378.942852 137.40791 
L 380.028653 191.250054 
L 381.114454 198.835191 
L 382.200255 191.250054 
L 383.286057 143.511484 
L 384.371858 125.730602 
L 385.457659 120.159635 
L 386.54346 176.687061 
L 387.629261 156.246397 
L 388.715062 149.790875 
L 389.800863 156.246397 
L 390.886665 169.691609 
L 393.058267 143.511484 
L 394.144068 169.691609 
L 395.229869 198.835191 
L 396.31567 137.40791 
L 397.401472 214.686318 
L 398.487273 162.879231 
L 398.487273 162.879231 
" style="fill:none;stroke:#008000;stroke-dasharray:9.6,2.4,1.5,2.4;stroke-dashoffset:0;stroke-width:1.5;"/>
   </g>
   <g id="line2d_30">
    <path clip-path="url(#pfc5e9dfd5f)" d="M 73.832727 122.793614 
L 74.918528 207.402697 
L 76.00433 222.786166 
L 77.090131 176.635757 
L 78.175932 207.402697 
L 79.261733 230.477901 
L 81.433335 199.710962 
L 82.519137 176.635757 
L 83.604938 184.327492 
L 84.690739 215.094432 
L 85.77654 168.944023 
L 86.862341 161.252288 
L 87.948142 168.944023 
L 89.033943 145.868818 
L 90.119745 176.635757 
L 91.205546 130.485348 
L 92.291347 107.410144 
L 93.377148 138.177083 
L 94.462949 192.019227 
L 95.54875 168.944023 
L 96.634552 153.560553 
L 97.720353 176.635757 
L 98.806154 145.868818 
L 99.891955 153.560553 
L 100.977756 153.560553 
L 102.063557 115.101879 
L 103.149358 107.410144 
L 104.23516 145.868818 
L 105.320961 168.944023 
L 106.406762 115.101879 
L 107.492563 92.026674 
L 108.578364 138.177083 
L 109.664165 107.410144 
L 110.749967 122.793614 
L 111.835768 153.560553 
L 112.921569 199.710962 
L 114.00737 145.868818 
L 115.093171 115.101879 
L 116.178972 153.560553 
L 117.264773 107.410144 
L 118.350575 130.485348 
L 119.436376 122.793614 
L 120.522177 99.718409 
L 121.607978 68.95147 
L 122.693779 53.568 
L 123.77958 168.944023 
L 124.865382 222.786166 
L 125.951183 161.252288 
L 127.036984 192.019227 
L 128.122785 192.019227 
L 129.208586 222.786166 
L 130.294387 184.327492 
L 131.380189 192.019227 
L 132.46599 230.477901 
L 133.551791 215.094432 
L 136.809194 215.094432 
L 137.894995 222.786166 
L 138.980797 207.402697 
L 140.066598 176.635757 
L 141.152399 184.327492 
L 142.2382 184.327492 
L 143.324001 161.252288 
L 144.409802 215.094432 
L 145.495604 99.718409 
L 146.581405 153.560553 
L 148.753007 184.327492 
L 149.838808 192.019227 
L 150.924609 207.402697 
L 152.01041 130.485348 
L 153.096212 184.327492 
L 154.182013 107.410144 
L 155.267814 153.560553 
L 156.353615 176.635757 
L 157.439416 122.793614 
L 158.525217 184.327492 
L 159.611019 130.485348 
L 160.69682 122.793614 
L 162.868422 138.177083 
L 163.954223 153.560553 
L 165.040024 122.793614 
L 166.125825 176.635757 
L 167.211627 92.026674 
L 168.297428 199.710962 
L 170.46903 92.026674 
L 171.554831 107.410144 
L 172.640632 192.019227 
L 173.726434 68.95147 
L 174.812235 161.252288 
L 175.898036 138.177083 
L 176.983837 176.635757 
L 178.069638 153.560553 
L 179.155439 215.094432 
L 180.24124 130.485348 
L 181.327042 92.026674 
L 182.412843 122.793614 
L 184.584445 107.410144 
L 185.670246 122.793614 
L 186.756047 176.635757 
L 187.841849 153.560553 
L 188.92765 222.786166 
L 190.013451 145.868818 
L 191.099252 153.560553 
L 192.185053 153.560553 
L 193.270854 161.252288 
L 194.356656 161.252288 
L 195.442457 138.177083 
L 196.528258 153.560553 
L 197.614059 61.259735 
L 198.69986 53.568 
L 199.785661 99.718409 
L 200.871462 61.259735 
L 201.957264 199.710962 
L 203.043065 184.327492 
L 204.128866 122.793614 
L 205.214667 138.177083 
L 206.300468 145.868818 
L 208.472071 176.635757 
L 209.557872 245.861371 
L 210.643673 192.019227 
L 211.729474 199.710962 
L 212.815275 168.944023 
L 213.901076 184.327492 
L 214.986877 122.793614 
L 216.072679 53.568 
L 217.15848 153.560553 
L 218.244281 184.327492 
L 219.330082 184.327492 
L 220.415883 222.786166 
L 221.501684 238.169636 
L 222.587486 168.944023 
L 223.673287 153.560553 
L 224.759088 207.402697 
L 225.844889 153.560553 
L 226.93069 161.252288 
L 228.016491 130.485348 
L 229.102292 145.868818 
L 230.188094 176.635757 
L 231.273895 168.944023 
L 232.359696 130.485348 
L 233.445497 130.485348 
L 234.531298 176.635757 
L 235.617099 145.868818 
L 236.702901 145.868818 
L 238.874503 130.485348 
L 239.960304 107.410144 
L 241.046105 153.560553 
L 242.131906 184.327492 
L 243.217708 176.635757 
L 244.303509 184.327492 
L 245.38931 153.560553 
L 246.475111 145.868818 
L 247.560912 153.560553 
L 248.646713 153.560553 
L 249.732514 184.327492 
L 250.818316 153.560553 
L 251.904117 222.786166 
L 252.989918 161.252288 
L 254.075719 192.019227 
L 255.16152 215.094432 
L 256.247321 192.019227 
L 257.333123 122.793614 
L 258.418924 107.410144 
L 259.504725 184.327492 
L 260.590526 153.560553 
L 261.676327 199.710962 
L 262.762128 161.252288 
L 263.847929 199.710962 
L 264.933731 145.868818 
L 266.019532 176.635757 
L 267.105333 145.868818 
L 268.191134 184.327492 
L 269.276935 192.019227 
L 270.362736 161.252288 
L 271.448538 115.101879 
L 272.534339 145.868818 
L 273.62014 145.868818 
L 274.705941 168.944023 
L 275.791742 153.560553 
L 276.877543 176.635757 
L 277.963344 176.635757 
L 279.049146 184.327492 
L 280.134947 161.252288 
L 281.220748 184.327492 
L 282.306549 184.327492 
L 283.39235 115.101879 
L 284.478151 122.793614 
L 285.563953 168.944023 
L 286.649754 130.485348 
L 288.821356 176.635757 
L 290.992958 145.868818 
L 292.07876 161.252288 
L 293.164561 122.793614 
L 294.250362 130.485348 
L 295.336163 115.101879 
L 296.421964 145.868818 
L 297.507765 138.177083 
L 298.593566 115.101879 
L 299.679368 161.252288 
L 300.765169 130.485348 
L 301.85097 153.560553 
L 302.936771 138.177083 
L 304.022572 184.327492 
L 305.108373 207.402697 
L 306.194175 138.177083 
L 307.279976 199.710962 
L 308.365777 184.327492 
L 309.451578 130.485348 
L 310.537379 184.327492 
L 311.62318 192.019227 
L 312.708981 161.252288 
L 313.794783 192.019227 
L 314.880584 184.327492 
L 315.966385 207.402697 
L 317.052186 153.560553 
L 319.223788 184.327492 
L 320.30959 176.635757 
L 321.395391 176.635757 
L 322.481192 192.019227 
L 323.566993 138.177083 
L 324.652794 92.026674 
L 325.738595 145.868818 
L 326.824396 130.485348 
L 327.910198 161.252288 
L 328.995999 122.793614 
L 330.0818 176.635757 
L 331.167601 145.868818 
L 332.253402 138.177083 
L 333.339203 176.635757 
L 334.425005 184.327492 
L 335.510806 168.944023 
L 336.596607 215.094432 
L 337.682408 145.868818 
L 338.768209 184.327492 
L 340.939811 138.177083 
L 342.025613 145.868818 
L 343.111414 138.177083 
L 344.197215 145.868818 
L 345.283016 199.710962 
L 346.368817 207.402697 
L 347.454618 168.944023 
L 348.54042 138.177083 
L 349.626221 192.019227 
L 350.712022 176.635757 
L 351.797823 115.101879 
L 352.883624 192.019227 
L 353.969425 184.327492 
L 355.055227 145.868818 
L 357.226829 115.101879 
L 358.31263 145.868818 
L 359.398431 184.327492 
L 360.484232 168.944023 
L 361.570033 168.944023 
L 362.655835 138.177083 
L 363.741636 168.944023 
L 364.827437 153.560553 
L 365.913238 145.868818 
L 366.999039 145.868818 
L 368.08484 192.019227 
L 369.170642 161.252288 
L 370.256443 168.944023 
L 371.342244 161.252288 
L 372.428045 168.944023 
L 373.513846 184.327492 
L 374.599647 184.327492 
L 375.685448 138.177083 
L 376.77125 115.101879 
L 377.857051 84.334939 
L 378.942852 153.560553 
L 380.028653 215.094432 
L 381.114454 222.786166 
L 382.200255 215.094432 
L 383.286057 161.252288 
L 384.371858 138.177083 
L 385.457659 130.485348 
L 386.54346 199.710962 
L 387.629261 176.635757 
L 388.715062 168.944023 
L 389.800863 176.635757 
L 390.886665 192.019227 
L 393.058267 161.252288 
L 395.229869 222.786166 
L 396.31567 153.560553 
L 397.401472 238.169636 
L 398.487273 184.327492 
L 398.487273 184.327492 
" style="fill:none;stroke:#ff0000;stroke-linecap:square;stroke-width:1.5;"/>
   </g>
   <g id="patch_3">
    <path d="M 57.6 307.584 
L 57.6 41.472 
" style="fill:none;stroke:#000000;stroke-linecap:square;stroke-linejoin:miter;stroke-width:0.8;"/>
   </g>
   <g id="patch_4">
    <path d="M 414.72 307.584 
L 414.72 41.472 
" style="fill:none;stroke:#000000;stroke-linecap:square;stroke-linejoin:miter;stroke-width:0.8;"/>
   </g>
   <g id="patch_5">
    <path d="M 57.6 307.584 
L 414.72 307.584 
" style="fill:none;stroke:#000000;stroke-linecap:square;stroke-linejoin:miter;stroke-width:0.8;"/>
   </g>
   <g id="patch_6">
    <path d="M 57.6 41.472 
L 414.72 41.472 
" style="fill:none;stroke:#000000;stroke-linecap:square;stroke-linejoin:miter;stroke-width:0.8;"/>
   </g>
   <g id="text_16">
    <!-- Population's average and best fitness -->
    <defs>
     <path d="M 19.671875 64.796875 
L 19.671875 37.40625 
L 32.078125 37.40625 
Q 38.96875 37.40625 42.71875 40.96875 
Q 46.484375 44.53125 46.484375 51.125 
Q 46.484375 57.671875 42.71875 61.234375 
Q 38.96875 64.796875 32.078125 64.796875 
z
M 9.8125 72.90625 
L 32.078125 72.90625 
Q 44.34375 72.90625 50.609375 67.359375 
Q 56.890625 61.8125 56.890625 51.125 
Q 56.890625 40.328125 50.609375 34.8125 
Q 44.34375 29.296875 32.078125 29.296875 
L 19.671875 29.296875 
L 19.671875 0 
L 9.8125 0 
z
" id="DejaVuSans-80"/>
     <path d="M 18.109375 8.203125 
L 18.109375 -20.796875 
L 9.078125 -20.796875 
L 9.078125 54.6875 
L 18.109375 54.6875 
L 18.109375 46.390625 
Q 20.953125 51.265625 25.265625 53.625 
Q 29.59375 56 35.59375 56 
Q 45.5625 56 51.78125 48.09375 
Q 58.015625 40.1875 58.015625 27.296875 
Q 58.015625 14.40625 51.78125 6.484375 
Q 45.5625 -1.421875 35.59375 -1.421875 
Q 29.59375 -1.421875 25.265625 0.953125 
Q 20.953125 3.328125 18.109375 8.203125 
z
M 48.6875 27.296875 
Q 48.6875 37.203125 44.609375 42.84375 
Q 40.53125 48.484375 33.40625 48.484375 
Q 26.265625 48.484375 22.1875 42.84375 
Q 18.109375 37.203125 18.109375 27.296875 
Q 18.109375 17.390625 22.1875 11.75 
Q 26.265625 6.109375 33.40625 6.109375 
Q 40.53125 6.109375 44.609375 11.75 
Q 48.6875 17.390625 48.6875 27.296875 
z
" id="DejaVuSans-112"/>
     <path d="M 8.5 21.578125 
L 8.5 54.6875 
L 17.484375 54.6875 
L 17.484375 21.921875 
Q 17.484375 14.15625 20.5 10.265625 
Q 23.53125 6.390625 29.59375 6.390625 
Q 36.859375 6.390625 41.078125 11.03125 
Q 45.3125 15.671875 45.3125 23.6875 
L 45.3125 54.6875 
L 54.296875 54.6875 
L 54.296875 0 
L 45.3125 0 
L 45.3125 8.40625 
Q 42.046875 3.421875 37.71875 1 
Q 33.40625 -1.421875 27.6875 -1.421875 
Q 18.265625 -1.421875 13.375 4.4375 
Q 8.5 10.296875 8.5 21.578125 
z
M 31.109375 56 
z
" id="DejaVuSans-117"/>
     <path d="M 9.421875 75.984375 
L 18.40625 75.984375 
L 18.40625 0 
L 9.421875 0 
z
" id="DejaVuSans-108"/>
     <path d="M 17.921875 72.90625 
L 17.921875 45.796875 
L 9.625 45.796875 
L 9.625 72.90625 
z
" id="DejaVuSans-39"/>
     <path id="DejaVuSans-32"/>
     <path d="M 2.984375 54.6875 
L 12.5 54.6875 
L 29.59375 8.796875 
L 46.6875 54.6875 
L 56.203125 54.6875 
L 35.6875 0 
L 23.484375 0 
z
" id="DejaVuSans-118"/>
     <path d="M 45.40625 27.984375 
Q 45.40625 37.75 41.375 43.109375 
Q 37.359375 48.484375 30.078125 48.484375 
Q 22.859375 48.484375 18.828125 43.109375 
Q 14.796875 37.75 14.796875 27.984375 
Q 14.796875 18.265625 18.828125 12.890625 
Q 22.859375 7.515625 30.078125 7.515625 
Q 37.359375 7.515625 41.375 12.890625 
Q 45.40625 18.265625 45.40625 27.984375 
z
M 54.390625 6.78125 
Q 54.390625 -7.171875 48.1875 -13.984375 
Q 42 -20.796875 29.203125 -20.796875 
Q 24.46875 -20.796875 20.265625 -20.09375 
Q 16.0625 -19.390625 12.109375 -17.921875 
L 12.109375 -9.1875 
Q 16.0625 -11.328125 19.921875 -12.34375 
Q 23.78125 -13.375 27.78125 -13.375 
Q 36.625 -13.375 41.015625 -8.765625 
Q 45.40625 -4.15625 45.40625 5.171875 
L 45.40625 9.625 
Q 42.625 4.78125 38.28125 2.390625 
Q 33.9375 0 27.875 0 
Q 17.828125 0 11.671875 7.65625 
Q 5.515625 15.328125 5.515625 27.984375 
Q 5.515625 40.671875 11.671875 48.328125 
Q 17.828125 56 27.875 56 
Q 33.9375 56 38.28125 53.609375 
Q 42.625 51.21875 45.40625 46.390625 
L 45.40625 54.6875 
L 54.390625 54.6875 
z
" id="DejaVuSans-103"/>
     <path d="M 45.40625 46.390625 
L 45.40625 75.984375 
L 54.390625 75.984375 
L 54.390625 0 
L 45.40625 0 
L 45.40625 8.203125 
Q 42.578125 3.328125 38.25 0.953125 
Q 33.9375 -1.421875 27.875 -1.421875 
Q 17.96875 -1.421875 11.734375 6.484375 
Q 5.515625 14.40625 5.515625 27.296875 
Q 5.515625 40.1875 11.734375 48.09375 
Q 17.96875 56 27.875 56 
Q 33.9375 56 38.25 53.625 
Q 42.578125 51.265625 45.40625 46.390625 
z
M 14.796875 27.296875 
Q 14.796875 17.390625 18.875 11.75 
Q 22.953125 6.109375 30.078125 6.109375 
Q 37.203125 6.109375 41.296875 11.75 
Q 45.40625 17.390625 45.40625 27.296875 
Q 45.40625 37.203125 41.296875 42.84375 
Q 37.203125 48.484375 30.078125 48.484375 
Q 22.953125 48.484375 18.875 42.84375 
Q 14.796875 37.203125 14.796875 27.296875 
z
" id="DejaVuSans-100"/>
     <path d="M 48.6875 27.296875 
Q 48.6875 37.203125 44.609375 42.84375 
Q 40.53125 48.484375 33.40625 48.484375 
Q 26.265625 48.484375 22.1875 42.84375 
Q 18.109375 37.203125 18.109375 27.296875 
Q 18.109375 17.390625 22.1875 11.75 
Q 26.265625 6.109375 33.40625 6.109375 
Q 40.53125 6.109375 44.609375 11.75 
Q 48.6875 17.390625 48.6875 27.296875 
z
M 18.109375 46.390625 
Q 20.953125 51.265625 25.265625 53.625 
Q 29.59375 56 35.59375 56 
Q 45.5625 56 51.78125 48.09375 
Q 58.015625 40.1875 58.015625 27.296875 
Q 58.015625 14.40625 51.78125 6.484375 
Q 45.5625 -1.421875 35.59375 -1.421875 
Q 29.59375 -1.421875 25.265625 0.953125 
Q 20.953125 3.328125 18.109375 8.203125 
L 18.109375 0 
L 9.078125 0 
L 9.078125 75.984375 
L 18.109375 75.984375 
z
" id="DejaVuSans-98"/>
     <path d="M 37.109375 75.984375 
L 37.109375 68.5 
L 28.515625 68.5 
Q 23.6875 68.5 21.796875 66.546875 
Q 19.921875 64.59375 19.921875 59.515625 
L 19.921875 54.6875 
L 34.71875 54.6875 
L 34.71875 47.703125 
L 19.921875 47.703125 
L 19.921875 0 
L 10.890625 0 
L 10.890625 47.703125 
L 2.296875 47.703125 
L 2.296875 54.6875 
L 10.890625 54.6875 
L 10.890625 58.5 
Q 10.890625 67.625 15.140625 71.796875 
Q 19.390625 75.984375 28.609375 75.984375 
z
" id="DejaVuSans-102"/>
    </defs>
    <g transform="translate(123.315 35.472)scale(0.12 -0.12)">
     <use xlink:href="#DejaVuSans-80"/>
     <use x="60.255859" xlink:href="#DejaVuSans-111"/>
     <use x="121.4375" xlink:href="#DejaVuSans-112"/>
     <use x="184.914062" xlink:href="#DejaVuSans-117"/>
     <use x="248.292969" xlink:href="#DejaVuSans-108"/>
     <use x="276.076172" xlink:href="#DejaVuSans-97"/>
     <use x="337.355469" xlink:href="#DejaVuSans-116"/>
     <use x="376.564453" xlink:href="#DejaVuSans-105"/>
     <use x="404.347656" xlink:href="#DejaVuSans-111"/>
     <use x="465.529297" xlink:href="#DejaVuSans-110"/>
     <use x="528.908203" xlink:href="#DejaVuSans-39"/>
     <use x="556.398438" xlink:href="#DejaVuSans-115"/>
     <use x="608.498047" xlink:href="#DejaVuSans-32"/>
     <use x="640.285156" xlink:href="#DejaVuSans-97"/>
     <use x="701.564453" xlink:href="#DejaVuSans-118"/>
     <use x="760.744141" xlink:href="#DejaVuSans-101"/>
     <use x="822.267578" xlink:href="#DejaVuSans-114"/>
     <use x="863.380859" xlink:href="#DejaVuSans-97"/>
     <use x="924.660156" xlink:href="#DejaVuSans-103"/>
     <use x="988.136719" xlink:href="#DejaVuSans-101"/>
     <use x="1049.660156" xlink:href="#DejaVuSans-32"/>
     <use x="1081.447266" xlink:href="#DejaVuSans-97"/>
     <use x="1142.726562" xlink:href="#DejaVuSans-110"/>
     <use x="1206.105469" xlink:href="#DejaVuSans-100"/>
     <use x="1269.582031" xlink:href="#DejaVuSans-32"/>
     <use x="1301.369141" xlink:href="#DejaVuSans-98"/>
     <use x="1364.845703" xlink:href="#DejaVuSans-101"/>
     <use x="1426.369141" xlink:href="#DejaVuSans-115"/>
     <use x="1478.46875" xlink:href="#DejaVuSans-116"/>
     <use x="1517.677734" xlink:href="#DejaVuSans-32"/>
     <use x="1549.464844" xlink:href="#DejaVuSans-102"/>
     <use x="1584.669922" xlink:href="#DejaVuSans-105"/>
     <use x="1612.453125" xlink:href="#DejaVuSans-116"/>
     <use x="1651.662109" xlink:href="#DejaVuSans-110"/>
     <use x="1715.041016" xlink:href="#DejaVuSans-101"/>
     <use x="1776.564453" xlink:href="#DejaVuSans-115"/>
     <use x="1828.664062" xlink:href="#DejaVuSans-115"/>
    </g>
   </g>
   <g id="legend_1">
    <g id="patch_7">
     <path d="M 334.779375 108.1845 
L 407.72 108.1845 
Q 409.72 108.1845 409.72 106.1845 
L 409.72 48.472 
Q 409.72 46.472 407.72 46.472 
L 334.779375 46.472 
Q 332.779375 46.472 332.779375 48.472 
L 332.779375 106.1845 
Q 332.779375 108.1845 334.779375 108.1845 
z
" style="fill:#ffffff;opacity:0.8;stroke:#cccccc;stroke-linejoin:miter;"/>
    </g>
    <g id="line2d_31">
     <path d="M 336.779375 54.570438 
L 356.779375 54.570438 
" style="fill:none;stroke:#0000ff;stroke-linecap:square;stroke-width:1.5;"/>
    </g>
    <g id="line2d_32"/>
    <g id="text_17">
     <!-- average -->
     <g transform="translate(364.779375 58.070438)scale(0.1 -0.1)">
      <use xlink:href="#DejaVuSans-97"/>
      <use x="61.279297" xlink:href="#DejaVuSans-118"/>
      <use x="120.458984" xlink:href="#DejaVuSans-101"/>
      <use x="181.982422" xlink:href="#DejaVuSans-114"/>
      <use x="223.095703" xlink:href="#DejaVuSans-97"/>
      <use x="284.375" xlink:href="#DejaVuSans-103"/>
      <use x="347.851562" xlink:href="#DejaVuSans-101"/>
     </g>
    </g>
    <g id="line2d_33">
     <path d="M 336.779375 69.248563 
L 356.779375 69.248563 
" style="fill:none;stroke:#008000;stroke-dasharray:9.6,2.4,1.5,2.4;stroke-dashoffset:0;stroke-width:1.5;"/>
    </g>
    <g id="line2d_34"/>
    <g id="text_18">
     <!-- -1 sd -->
     <defs>
      <path d="M 4.890625 31.390625 
L 31.203125 31.390625 
L 31.203125 23.390625 
L 4.890625 23.390625 
z
" id="DejaVuSans-45"/>
     </defs>
     <g transform="translate(364.779375 72.748563)scale(0.1 -0.1)">
      <use xlink:href="#DejaVuSans-45"/>
      <use x="36.083984" xlink:href="#DejaVuSans-49"/>
      <use x="99.707031" xlink:href="#DejaVuSans-32"/>
      <use x="131.494141" xlink:href="#DejaVuSans-115"/>
      <use x="183.59375" xlink:href="#DejaVuSans-100"/>
     </g>
    </g>
    <g id="line2d_35">
     <path d="M 336.779375 83.926688 
L 356.779375 83.926688 
" style="fill:none;stroke:#008000;stroke-dasharray:9.6,2.4,1.5,2.4;stroke-dashoffset:0;stroke-width:1.5;"/>
    </g>
    <g id="line2d_36"/>
    <g id="text_19">
     <!-- +1 sd -->
     <defs>
      <path d="M 46 62.703125 
L 46 35.5 
L 73.1875 35.5 
L 73.1875 27.203125 
L 46 27.203125 
L 46 0 
L 37.796875 0 
L 37.796875 27.203125 
L 10.59375 27.203125 
L 10.59375 35.5 
L 37.796875 35.5 
L 37.796875 62.703125 
z
" id="DejaVuSans-43"/>
     </defs>
     <g transform="translate(364.779375 87.426688)scale(0.1 -0.1)">
      <use xlink:href="#DejaVuSans-43"/>
      <use x="83.789062" xlink:href="#DejaVuSans-49"/>
      <use x="147.412109" xlink:href="#DejaVuSans-32"/>
      <use x="179.199219" xlink:href="#DejaVuSans-115"/>
      <use x="231.298828" xlink:href="#DejaVuSans-100"/>
     </g>
    </g>
    <g id="line2d_37">
     <path d="M 336.779375 98.604813 
L 356.779375 98.604813 
" style="fill:none;stroke:#ff0000;stroke-linecap:square;stroke-width:1.5;"/>
    </g>
    <g id="line2d_38"/>
    <g id="text_20">
     <!-- best -->
     <g transform="translate(364.779375 102.104813)scale(0.1 -0.1)">
      <use xlink:href="#DejaVuSans-98"/>
      <use x="63.476562" xlink:href="#DejaVuSans-101"/>
      <use x="125" xlink:href="#DejaVuSans-115"/>
      <use x="177.099609" xlink:href="#DejaVuSans-116"/>
     </g>
    </g>
   </g>
  </g>
 </g>
 <defs>
  <clipPath id="pfc5e9dfd5f">
   <rect height="266.112" width="357.12" x="57.6" y="41.472"/>
  </clipPath>
 </defs>
</svg>
