<?xml version="1.0" encoding="UTF-8" standalone="no"?>
<!DOCTYPE svg PUBLIC "-//W3C//DTD SVG 1.1//EN"
 "http://www.w3.org/Graphics/SVG/1.1/DTD/svg11.dtd">
<!-- Generated by graphviz version 2.38.0 (20140413.2041)
 -->
<!-- Title: %3 Pages: 1 -->
<svg width="575pt" height="549pt"
 viewBox="0.00 0.00 575.00 548.88" xmlns="http://www.w3.org/2000/svg" xmlns:xlink="http://www.w3.org/1999/xlink">
<g id="graph0" class="graph" transform="scale(1 1) rotate(0) translate(4 544.884)">
<title>%3</title>
<polygon fill="white" stroke="none" points="-4,4 -4,-544.884 571,-544.884 571,4 -4,4"/>
<!-- My last action -->
<g id="node1" class="node"><title>My last action</title>
<polygon fill="lightgray" stroke="black" points="355,-474.671 285,-474.671 285,-456.671 355,-456.671 355,-474.671"/>
<text text-anchor="middle" x="320" y="-463.471" font-family="Times New Roman,serif" font-size="9.00">My last action</text>
</g>
<!-- My decision -->
<g id="node3" class="node"><title>My decision</title>
<ellipse fill="lightblue" stroke="black" cx="506" cy="-43.8406" rx="43.6818" ry="43.6818"/>
<text text-anchor="middle" x="506" y="-41.6406" font-family="Times New Roman,serif" font-size="9.00">My decision</text>
</g>
<!-- My last action&#45;&gt;My decision -->
<g id="edge1" class="edge"><title>My last action&#45;&gt;My decision</title>
<path fill="none" stroke="green" stroke-width="0.354598" d="M355.194,-464.721C398.323,-462.755 470.522,-452.528 510,-408.458 541.851,-372.902 529,-350.483 529,-302.747 529,-302.747 529,-302.747 529,-222.321 529,-179.903 522.459,-132.251 516.353,-97.0124"/>
<polygon fill="green" stroke="green" stroke-width="0.354598" points="519.762,-96.1891 514.564,-86.9566 512.87,-97.415 519.762,-96.1891"/>
</g>
<!-- 256 -->
<g id="node4" class="node"><title>256</title>
<ellipse fill="white" stroke="black" cx="111" cy="-223.321" rx="21.4286" ry="21.4286"/>
<text text-anchor="middle" x="111" y="-221.121" font-family="Times New Roman,serif" font-size="9.00">256</text>
</g>
<!-- My last action&#45;&gt;256 -->
<g id="edge6" class="edge"><title>My last action&#45;&gt;256</title>
<path fill="none" stroke="red" stroke-width="0.125345" stroke-dasharray="1,5" d="M284.708,-458.314C254.13,-451.104 210.582,-436.502 183,-408.458 140.689,-365.437 122.536,-294.673 115.314,-254.553"/>
<polygon fill="red" stroke="red" stroke-width="0.125345" points="118.746,-253.851 113.631,-244.573 111.843,-255.016 118.746,-253.851"/>
</g>
<!-- 897 -->
<g id="node5" class="node"><title>897</title>
<ellipse fill="white" stroke="black" cx="227" cy="-301.747" rx="21.4286" ry="21.4286"/>
<text text-anchor="middle" x="227" y="-299.547" font-family="Times New Roman,serif" font-size="9.00">897</text>
</g>
<!-- My last action&#45;&gt;897 -->
<g id="edge12" class="edge"><title>My last action&#45;&gt;897</title>
<path fill="none" stroke="green" stroke-width="0.485455" stroke-dasharray="1,5" d="M284.936,-459.771C254.83,-453.508 213.192,-439.477 193,-408.458 176.566,-383.212 192.861,-349.401 208.054,-326.887"/>
<polygon fill="green" stroke="green" stroke-width="0.485455" points="211.028,-328.744 213.967,-318.565 205.321,-324.689 211.028,-328.744"/>
</g>
<!-- 103 -->
<g id="node7" class="node"><title>103</title>
<ellipse fill="white" stroke="black" cx="336" cy="-223.321" rx="21.4286" ry="21.4286"/>
<text text-anchor="middle" x="336" y="-221.121" font-family="Times New Roman,serif" font-size="9.00">103</text>
</g>
<!-- My last action&#45;&gt;103 -->
<g id="edge3" class="edge"><title>My last action&#45;&gt;103</title>
<path fill="none" stroke="red" stroke-width="0.239242" stroke-dasharray="1,5" d="M324.899,-456.594C339.877,-430.881 383.032,-348.621 366,-280.534 363.342,-269.91 358.254,-259.096 353.012,-249.828"/>
<polygon fill="red" stroke="red" stroke-width="0.239242" points="355.947,-247.917 347.803,-241.14 349.943,-251.516 355.947,-247.917"/>
</g>
<!-- 1034 -->
<g id="node8" class="node"><title>1034</title>
<ellipse fill="white" stroke="black" cx="227" cy="-383.709" rx="25" ry="25"/>
<text text-anchor="middle" x="227" y="-381.509" font-family="Times New Roman,serif" font-size="9.00">1034</text>
</g>
<!-- My last action&#45;&gt;1034 -->
<g id="edge21" class="edge"><title>My last action&#45;&gt;1034</title>
<path fill="none" stroke="green" stroke-width="0.534074" d="M310.398,-456.415C296.997,-444.893 272.186,-423.561 253.097,-407.148"/>
<polygon fill="green" stroke="green" stroke-width="0.534074" points="255.181,-404.324 245.317,-400.458 250.617,-409.631 255.181,-404.324"/>
</g>
<!-- 976 -->
<g id="node9" class="node"><title>976</title>
<ellipse fill="white" stroke="black" cx="336" cy="-301.747" rx="21.4286" ry="21.4286"/>
<text text-anchor="middle" x="336" y="-299.547" font-family="Times New Roman,serif" font-size="9.00">976</text>
</g>
<!-- My last action&#45;&gt;976 -->
<g id="edge19" class="edge"><title>My last action&#45;&gt;976</title>
<path fill="none" stroke="green" stroke-width="0.509322" d="M321.365,-456.312C323.115,-445.351 326.143,-425.509 328,-408.458 330.761,-383.101 332.877,-354.218 334.237,-333.058"/>
<polygon fill="green" stroke="green" stroke-width="0.509322" points="337.732,-333.248 334.862,-323.049 330.746,-332.812 337.732,-333.248"/>
</g>
<!-- 1074 -->
<g id="node10" class="node"><title>1074</title>
<ellipse fill="white" stroke="black" cx="294" cy="-383.709" rx="25" ry="25"/>
<text text-anchor="middle" x="294" y="-381.509" font-family="Times New Roman,serif" font-size="9.00">1074</text>
</g>
<!-- My last action&#45;&gt;1074 -->
<g id="edge23" class="edge"><title>My last action&#45;&gt;1074</title>
<path fill="none" stroke="green" stroke-width="0.279482" stroke-dasharray="1,5" d="M317.315,-456.415C314.301,-447.143 309.22,-431.516 304.569,-417.214"/>
<polygon fill="green" stroke="green" stroke-width="0.279482" points="307.87,-416.046 301.449,-407.618 301.213,-418.21 307.87,-416.046"/>
</g>
<!-- 788 -->
<g id="node12" class="node"><title>788</title>
<ellipse fill="white" stroke="black" cx="476" cy="-301.747" rx="21.4286" ry="21.4286"/>
<text text-anchor="middle" x="476" y="-299.547" font-family="Times New Roman,serif" font-size="9.00">788</text>
</g>
<!-- My last action&#45;&gt;788 -->
<g id="edge10" class="edge"><title>My last action&#45;&gt;788</title>
<path fill="none" stroke="green" stroke-width="0.319565" stroke-dasharray="1,5" d="M334.162,-456.538C350.823,-446.552 378.773,-428.462 399,-408.458 423.405,-384.322 445.837,-351.829 460.117,-329.266"/>
<polygon fill="green" stroke="green" stroke-width="0.319565" points="463.227,-330.892 465.538,-320.553 457.284,-327.194 463.227,-330.892"/>
</g>
<!-- 443 -->
<g id="node14" class="node"><title>443</title>
<ellipse fill="white" stroke="black" cx="87" cy="-383.709" rx="21.4286" ry="21.4286"/>
<text text-anchor="middle" x="87" y="-381.509" font-family="Times New Roman,serif" font-size="9.00">443</text>
</g>
<!-- My last action&#45;&gt;443 -->
<g id="edge7" class="edge"><title>My last action&#45;&gt;443</title>
<path fill="none" stroke="red" stroke-width="0.334491" stroke-dasharray="1,5" d="M284.82,-458.232C244.269,-450.015 176.244,-433.757 122,-408.458 118.606,-406.875 115.175,-404.98 111.857,-402.961"/>
<polygon fill="red" stroke="red" stroke-width="0.334491" points="113.723,-399.999 103.439,-397.452 109.89,-405.856 113.723,-399.999"/>
</g>
<!-- 1116 -->
<g id="node15" class="node"><title>1116</title>
<ellipse fill="white" stroke="black" cx="476" cy="-383.709" rx="25" ry="25"/>
<text text-anchor="middle" x="476" y="-381.509" font-family="Times New Roman,serif" font-size="9.00">1116</text>
</g>
<!-- My last action&#45;&gt;1116 -->
<g id="edge25" class="edge"><title>My last action&#45;&gt;1116</title>
<path fill="none" stroke="green" stroke-width="0.270055" d="M338.117,-456.642C361.352,-446.192 402.739,-427.061 437,-408.458 440.089,-406.781 443.279,-404.972 446.44,-403.127"/>
<polygon fill="green" stroke="green" stroke-width="0.270055" points="448.38,-406.045 455.173,-397.915 444.792,-400.035 448.38,-406.045"/>
</g>
<!-- Opponent&#39;s last action -->
<g id="node2" class="node"><title>Opponent&#39;s last action</title>
<polygon fill="lightgray" stroke="black" points="136,-540.884 38,-540.884 38,-522.884 136,-522.884 136,-540.884"/>
<text text-anchor="middle" x="87" y="-529.684" font-family="Times New Roman,serif" font-size="9.00">Opponent&#39;s last action</text>
</g>
<!-- Opponent&#39;s last action&#45;&gt;My decision -->
<g id="edge2" class="edge"><title>Opponent&#39;s last action&#45;&gt;My decision</title>
<path fill="none" stroke="green" stroke-width="0.355349" stroke-dasharray="1,5" d="M136.113,-526.468C258.449,-514.118 567,-474.108 567,-384.709 567,-384.709 567,-384.709 567,-222.321 567,-175.962 548.156,-126.309 531.415,-91.3454"/>
<polygon fill="green" stroke="green" stroke-width="0.355349" points="534.542,-89.7709 526.993,-82.3368 528.258,-92.8558 534.542,-89.7709"/>
</g>
<!-- 179 -->
<g id="node11" class="node"><title>179</title>
<ellipse fill="white" stroke="black" cx="336" cy="-144.894" rx="21.4286" ry="21.4286"/>
<text text-anchor="middle" x="336" y="-142.694" font-family="Times New Roman,serif" font-size="9.00">179</text>
</g>
<!-- Opponent&#39;s last action&#45;&gt;179 -->
<g id="edge9" class="edge"><title>Opponent&#39;s last action&#45;&gt;179</title>
<path fill="none" stroke="red" stroke-width="0.448192" d="M77.6895,-522.698C55.2458,-502.007 0,-444.955 0,-384.709 0,-384.709 0,-384.709 0,-300.747 0,-167.374 221.063,-148.484 304.569,-146.106"/>
<polygon fill="red" stroke="red" stroke-width="0.448192" points="304.807,-149.602 314.727,-145.881 304.651,-142.604 304.807,-149.602"/>
</g>
<!-- 947 -->
<g id="node13" class="node"><title>947</title>
<ellipse fill="white" stroke="black" cx="87" cy="-465.671" rx="21.4286" ry="21.4286"/>
<text text-anchor="middle" x="87" y="-463.471" font-family="Times New Roman,serif" font-size="9.00">947</text>
</g>
<!-- Opponent&#39;s last action&#45;&gt;947 -->
<g id="edge17" class="edge"><title>Opponent&#39;s last action&#45;&gt;947</title>
<path fill="none" stroke="red" stroke-width="0.287892" d="M87,-522.752C87,-516.209 87,-506.58 87,-497.14"/>
<polygon fill="red" stroke="red" stroke-width="0.287892" points="90.5001,-497.126 87,-487.126 83.5001,-497.127 90.5001,-497.126"/>
</g>
<!-- 897&#45;&gt;256 -->
<g id="edge13" class="edge"><title>897&#45;&gt;256</title>
<path fill="none" stroke="red" stroke-width="0.39441" stroke-dasharray="1,5" d="M209.634,-289.305C190.413,-276.642 159.229,-256.097 137.074,-241.499"/>
<polygon fill="red" stroke="red" stroke-width="0.39441" points="138.761,-238.42 128.485,-235.841 134.91,-244.265 138.761,-238.42"/>
</g>
<!-- 897&#45;&gt;103 -->
<g id="edge14" class="edge"><title>897&#45;&gt;103</title>
<path fill="none" stroke="red" stroke-width="0.458671" stroke-dasharray="1,5" d="M244.031,-288.806C261.949,-276.242 290.339,-256.336 310.839,-241.963"/>
<polygon fill="red" stroke="red" stroke-width="0.458671" points="312.91,-244.785 319.088,-236.179 308.891,-239.054 312.91,-244.785"/>
</g>
<!-- 934 -->
<g id="node6" class="node"><title>934</title>
<ellipse fill="white" stroke="black" cx="87" cy="-301.747" rx="21.4286" ry="21.4286"/>
<text text-anchor="middle" x="87" y="-299.547" font-family="Times New Roman,serif" font-size="9.00">934</text>
</g>
<!-- 934&#45;&gt;256 -->
<g id="edge16" class="edge"><title>934&#45;&gt;256</title>
<path fill="none" stroke="red" stroke-width="0.406389" d="M93.1806,-281.066C95.8325,-272.621 98.9846,-262.583 101.895,-253.315"/>
<polygon fill="red" stroke="red" stroke-width="0.406389" points="105.267,-254.261 104.923,-243.671 98.5881,-252.163 105.267,-254.261"/>
</g>
<!-- 103&#45;&gt;179 -->
<g id="edge4" class="edge"><title>103&#45;&gt;179</title>
<path fill="none" stroke="green" stroke-width="0.194389" stroke-dasharray="1,5" d="M336,-201.84C336,-193.981 336,-184.837 336,-176.247"/>
<polygon fill="green" stroke="green" stroke-width="0.194389" points="339.5,-176.167 336,-166.167 332.5,-176.167 339.5,-176.167"/>
</g>
<!-- 1034&#45;&gt;897 -->
<g id="edge22" class="edge"><title>1034&#45;&gt;897</title>
<path fill="none" stroke="red" stroke-width="0.191766" d="M227,-358.718C227,-350.761 227,-341.792 227,-333.404"/>
<polygon fill="red" stroke="red" stroke-width="0.191766" points="230.5,-333.208 227,-323.208 223.5,-333.208 230.5,-333.208"/>
</g>
<!-- 976&#45;&gt;103 -->
<g id="edge20" class="edge"><title>976&#45;&gt;103</title>
<path fill="none" stroke="green" stroke-width="0.220941" stroke-dasharray="1,5" d="M336,-280.266C336,-272.408 336,-263.263 336,-254.673"/>
<polygon fill="green" stroke="green" stroke-width="0.220941" points="339.5,-254.593 336,-244.593 332.5,-254.593 339.5,-254.593"/>
</g>
<!-- 1074&#45;&gt;897 -->
<g id="edge24" class="edge"><title>1074&#45;&gt;897</title>
<path fill="none" stroke="green" stroke-width="0.449589" d="M278.46,-364.163C269.038,-352.918 256.924,-338.46 246.816,-326.397"/>
<polygon fill="green" stroke="green" stroke-width="0.449589" points="249.302,-323.915 240.197,-318.497 243.937,-328.41 249.302,-323.915"/>
</g>
<!-- 179&#45;&gt;My decision -->
<g id="edge5" class="edge"><title>179&#45;&gt;My decision</title>
<path fill="none" stroke="red" stroke-width="0.251741" stroke-dasharray="1,5" d="M354.193,-133.294C379.118,-118.771 424.748,-92.1836 459.496,-71.937"/>
<polygon fill="red" stroke="red" stroke-width="0.251741" points="461.65,-74.7328 468.528,-66.6742 458.126,-68.6846 461.65,-74.7328"/>
</g>
<!-- 788&#45;&gt;My decision -->
<g id="edge11" class="edge"><title>788&#45;&gt;My decision</title>
<path fill="none" stroke="red" stroke-width="1.70341" stroke-dasharray="1,5" d="M478.404,-280.238C482.999,-241.047 493.157,-154.396 499.784,-97.8678"/>
<polygon fill="red" stroke="red" stroke-width="1.70341" points="503.29,-98.0211 500.978,-87.6815 496.337,-97.206 503.29,-98.0211"/>
</g>
<!-- 947&#45;&gt;443 -->
<g id="edge18" class="edge"><title>947&#45;&gt;443</title>
<path fill="none" stroke="red" stroke-width="0.481963" d="M87,-444.079C87,-435.244 87,-424.741 87,-415.044"/>
<polygon fill="red" stroke="red" stroke-width="0.481963" points="90.5001,-414.955 87,-404.955 83.5001,-414.955 90.5001,-414.955"/>
</g>
<!-- 443&#45;&gt;256 -->
<g id="edge8" class="edge"><title>443&#45;&gt;256</title>
<path fill="none" stroke="red" stroke-width="0.359553" stroke-dasharray="1,5" d="M75.1448,-365.735C62.3448,-345.18 45.2648,-309.69 57,-280.534 62.9771,-265.684 74.9599,-252.556 86.1221,-242.728"/>
<polygon fill="red" stroke="red" stroke-width="0.359553" points="88.5513,-245.261 94.0073,-236.179 84.0785,-239.876 88.5513,-245.261"/>
</g>
<!-- 443&#45;&gt;934 -->
<g id="edge15" class="edge"><title>443&#45;&gt;934</title>
<path fill="none" stroke="red" stroke-width="0.253935" stroke-dasharray="1,5" d="M87,-362.117C87,-353.282 87,-342.779 87,-333.082"/>
<polygon fill="red" stroke="red" stroke-width="0.253935" points="90.5001,-332.993 87,-322.993 83.5001,-332.993 90.5001,-332.993"/>
</g>
<!-- 1116&#45;&gt;788 -->
<g id="edge26" class="edge"><title>1116&#45;&gt;788</title>
<path fill="none" stroke="green" stroke-width="0.434547" d="M476,-358.718C476,-350.761 476,-341.792 476,-333.404"/>
<polygon fill="green" stroke="green" stroke-width="0.434547" points="479.5,-333.208 476,-323.208 472.5,-333.208 479.5,-333.208"/>
</g>
</g>
</svg>
