<?xml version="1.0" encoding="UTF-8" standalone="no"?>
<!DOCTYPE svg PUBLIC "-//W3C//DTD SVG 1.1//EN"
 "http://www.w3.org/Graphics/SVG/1.1/DTD/svg11.dtd">
<!-- Generated by graphviz version 2.38.0 (20140413.2041)
 -->
<!-- Title: %3 Pages: 1 -->
<svg width="290pt" height="164pt"
 viewBox="0.00 0.00 290.38 164.47" xmlns="http://www.w3.org/2000/svg" xmlns:xlink="http://www.w3.org/1999/xlink">
<g id="graph0" class="graph" transform="scale(1 1) rotate(0) translate(4 160.468)">
<title>%3</title>
<polygon fill="white" stroke="none" points="-4,4 -4,-160.468 286.385,-160.468 286.385,4 -4,4"/>
<!-- &#45;1 -->
<g id="node1" class="node"><title>&#45;1</title>
<polygon fill="lightgray" stroke="black" points="30.3848,-156.468 6.38478,-156.468 6.38478,-138.468 30.3848,-138.468 30.3848,-156.468"/>
<text text-anchor="middle" x="18.3848" y="-145.268" font-family="Times New Roman,serif" font-size="9.00">&#45;1</text>
</g>
<!-- 34 -->
<g id="node10" class="node"><title>34</title>
<ellipse fill="white" stroke="black" cx="18.3848" cy="-84.0833" rx="18.2703" ry="18.2703"/>
<text text-anchor="middle" x="18.3848" y="-81.8833" font-family="Times New Roman,serif" font-size="9.00">34</text>
</g>
<!-- &#45;1&#45;&gt;34 -->
<g id="edge1" class="edge"><title>&#45;1&#45;&gt;34</title>
<path fill="none" stroke="green" stroke-width="0.272342" d="M18.3848,-138.443C18.3848,-131.879 18.3848,-122.189 18.3848,-112.862"/>
<polygon fill="green" stroke="green" stroke-width="0.272342" points="21.8849,-112.671 18.3848,-102.671 14.8849,-112.671 21.8849,-112.671"/>
</g>
<!-- &#45;2 -->
<g id="node2" class="node"><title>&#45;2</title>
<polygon fill="lightgray" stroke="black" points="72.3848,-156.468 48.3848,-156.468 48.3848,-138.468 72.3848,-138.468 72.3848,-156.468"/>
<text text-anchor="middle" x="60.3848" y="-145.268" font-family="Times New Roman,serif" font-size="9.00">&#45;2</text>
</g>
<!-- &#45;3 -->
<g id="node3" class="node"><title>&#45;3</title>
<polygon fill="lightgray" stroke="black" points="114.385,-156.468 90.3848,-156.468 90.3848,-138.468 114.385,-138.468 114.385,-156.468"/>
<text text-anchor="middle" x="102.385" y="-145.268" font-family="Times New Roman,serif" font-size="9.00">&#45;3</text>
</g>
<!-- &#45;4 -->
<g id="node4" class="node"><title>&#45;4</title>
<polygon fill="lightgray" stroke="black" points="156.385,-156.468 132.385,-156.468 132.385,-138.468 156.385,-138.468 156.385,-156.468"/>
<text text-anchor="middle" x="144.385" y="-145.268" font-family="Times New Roman,serif" font-size="9.00">&#45;4</text>
</g>
<!-- &#45;5 -->
<g id="node5" class="node"><title>&#45;5</title>
<polygon fill="lightgray" stroke="black" points="78.3848,-93.0833 54.3848,-93.0833 54.3848,-75.0833 78.3848,-75.0833 78.3848,-93.0833"/>
<text text-anchor="middle" x="66.3848" y="-81.8833" font-family="Times New Roman,serif" font-size="9.00">&#45;5</text>
</g>
<!-- 0 -->
<g id="node9" class="node"><title>0</title>
<ellipse fill="lightblue" stroke="black" cx="42.3848" cy="-14.8492" rx="14.7" ry="14.7"/>
<text text-anchor="middle" x="42.3848" y="-12.6492" font-family="Times New Roman,serif" font-size="9.00">0</text>
</g>
<!-- &#45;5&#45;&gt;0 -->
<g id="edge3" class="edge"><title>&#45;5&#45;&gt;0</title>
<path fill="none" stroke="green" stroke-width="0.137135" d="M63.4419,-74.8391C60.254,-65.9084 55.0272,-51.266 50.5788,-38.8041"/>
<polygon fill="green" stroke="green" stroke-width="0.137135" points="53.7453,-37.2636 47.087,-29.0223 47.1527,-39.6169 53.7453,-37.2636"/>
</g>
<!-- &#45;6 -->
<g id="node6" class="node"><title>&#45;6</title>
<polygon fill="lightgray" stroke="black" points="198.385,-156.468 174.385,-156.468 174.385,-138.468 198.385,-138.468 198.385,-156.468"/>
<text text-anchor="middle" x="186.385" y="-145.268" font-family="Times New Roman,serif" font-size="9.00">&#45;6</text>
</g>
<!-- &#45;7 -->
<g id="node7" class="node"><title>&#45;7</title>
<polygon fill="lightgray" stroke="black" points="240.385,-156.468 216.385,-156.468 216.385,-138.468 240.385,-138.468 240.385,-156.468"/>
<text text-anchor="middle" x="228.385" y="-145.268" font-family="Times New Roman,serif" font-size="9.00">&#45;7</text>
</g>
<!-- &#45;8 -->
<g id="node8" class="node"><title>&#45;8</title>
<polygon fill="lightgray" stroke="black" points="282.385,-156.468 258.385,-156.468 258.385,-138.468 282.385,-138.468 282.385,-156.468"/>
<text text-anchor="middle" x="270.385" y="-145.268" font-family="Times New Roman,serif" font-size="9.00">&#45;8</text>
</g>
<!-- 34&#45;&gt;0 -->
<g id="edge2" class="edge"><title>34&#45;&gt;0</title>
<path fill="none" stroke="red" stroke-width="0.427829" d="M24.3174,-66.4636C27.3027,-58.1006 30.9678,-47.833 34.2149,-38.7364"/>
<polygon fill="red" stroke="red" stroke-width="0.427829" points="37.5793,-39.7221 37.6449,-29.1275 30.9867,-37.3688 37.5793,-39.7221"/>
</g>
</g>
</svg>
